<svg id="Layer_1" data-name="Layer 1" xmlns="http://www.w3.org/2000/svg" width="15.88" height="8192.01" viewBox="0 0 15.88 8192.01"><defs><style>.cls-1{fill:#f4f1e8;}</style></defs><path class="cls-1" d="M14.45,1128.76c1.06-1,.21-2.33.53-3.45-.27-.36-.72-.52-.62-1.1,1.18-1.19.94-3,1.61-4.41-.05-.25-.59-.27-.2-.74l.68-.59-1.6-.84c1.42-1.24-.08-3.06,1.19-4.14-.87-.59-.18-1.89-1.11-2.44.23-.3.59-.46.59-1-.08-2.18-1.3-4-1.77-6,1.33-1.56-.23-3.72,1.38-5.33-1.83-1.09.07-3.2-1.4-4.43a4.77,4.77,0,0,0-.68-4.54c-1-1.5.31-3.35-1.19-4.51l.73-1c-.08-.73-1.13-1.37-.57-2.08a3.55,3.55,0,0,0,.53-2.74,3.51,3.51,0,0,1,.87-2.31c.64-.89,1.58-1.56.45-2.68,1-1.53-.6-3-.13-4.51a1.36,1.36,0,0,0-.34-1.34c-.53-.63-.2-1.43-.11-2.36l1.42-.93-1.28-.77c-.72-1.36.49-1.78.34-2.55-1-1.36-.71-2.68,0-4.06-.15-.2-.47-.41-.48-.63,0-2.64,0-5.27,0-8.29l1.19-.7c-.6-1.27-1.19-2.27-.32-3.39.59-.76-.28-2,.83-2.64.93-.59.35-2.09,1.48-2.62.08-1.81,1.54-3.44.49-5.43a3.26,3.26,0,0,1,.06-3.31c.85-1.15-.13-1.78-.26-2.42.43-1.19.8-2.21,1.18-3.24-1-.93-.69-1.86,0-2.73a2.32,2.32,0,0,1-.36-2.92,2.38,2.38,0,0,0,.27-1.67,16.86,16.86,0,0,1,1.19-5.74l-.7-.75,1.32-1v-4.85l1-.41c.39-.93-.5-1-.42-1.6-.2-.55.73-.59.59-1.18a1,1,0,0,0,.16-1.09c-1.41-2.81-1-5.67-.44-8.61a14.31,14.31,0,0,0,0-6.38c-1.35-5,.24-8.5.7-13.39,0-.39-.45-1.91-.45-2.31-.85-.16-.5-1.24-1.18-1.69.3-1.36-.49-2.88.59-4.15-.18-.31-.59-.46-.55-1a8.43,8.43,0,0,0-.91-4.65,3.11,3.11,0,0,1-.21-2.53c1.07-2.18.51-4.24-.07-6.08,0-1.13,1.22-1.25,1.19-2.32.45-1-1-1.15-1.19-2a20.91,20.91,0,0,1,0-3c.14-1-.83-1.66-.67-2.73.24-1.61.1-3.24-1.25-4.37.93-1.28-.18-2.37.07-3.55a3.49,3.49,0,0,0-1.07-3.34c-.54-2,1.07-3.67.5-5.5.55-.26,1-.08,1.18-.54s-.4-.77-.52-1.18c.66-.37.52-1,.53-1.57v-1.93L19,917c.34-.8-.2-1.61.38-2.12.93-.82-.6-1.87.36-2.63a10.51,10.51,0,0,1,0-7.51,2.62,2.62,0,0,0-.12-1.7,11.88,11.88,0,0,1-1-6l-1.18-.8a18.81,18.81,0,0,0-.21-3.18c-1.35-5.52-2-8.79-1.64-12.44a1.74,1.74,0,0,0,0-.88c-.86-1.45-1-3.16-1.43-4.73a29.71,29.71,0,0,0-2-4.5c-.26-.59-.72-.88-1-1.37-1.12-2.14-.64-4.74-2-6.82,1.19-2.09.12-4.4.64-6.55l1.08-1.09c0-1.93,0-3.9,0-5.87s1.42-3.38,1.89-5.21l-1.53-1.7c.94-.42.59-1.54,1.4-2,.16-2.88.15-5.7-1.6-8.23a1.85,1.85,0,0,1,.18-2.16,1.73,1.73,0,0,0,.2-1.92,3.58,3.58,0,0,1-.49-2.76c.14-1-.74-1.81-.59-2.71.28-1.69-.46-3.22-.76-4.77a11.05,11.05,0,0,0-.89-3.46,10.28,10.28,0,0,1-1.26-4.47c-.05-1.67-.6-3.42.42-5.13a2.5,2.5,0,0,0-.32-2.75c-.46-.52-.17-1.3-.14-2l1-1c.32-.78-.34-1.81.63-2.41.33-2.31,1.26-4.51,1.25-6.89a2.88,2.88,0,0,1,.38-1.92c.55-.82.16-1.74-.35-2.64s1.14-1.81.42-2.93c-.11-.16-.37-.26-.41-.43-.35-1.66-1-3.36-.93-5,.16-2.73.6-5.46.87-8.2.32-3.46-.64-7,.59-10.41a1.46,1.46,0,0,0,0-1.16c-1-1.07-.64-2.49-1.06-3.71s-.09-2.73-.09-4.11c.25-.89,1.25-1.41,1.18-2.48a11.11,11.11,0,0,0-.08-3c-.36-1,1.58-1.84.14-2.81,1.24-.85-.05-1.63-.11-2.44a26.31,26.31,0,0,1,1.38-9.52,5.24,5.24,0,0,0,.41-2.17,9.44,9.44,0,0,1,.81-4.42,5.33,5.33,0,0,0,0-3.83c-1.51-4.65-1.92-4-.37-9,.56-1.83,1.78-3.55,1.24-5.84l1.24-.59a3,3,0,0,1-.21-3.38,2.56,2.56,0,0,0,.17-2.24c-.75-1.35-.32-2.81-.6-4.14-1.73-.3-2.15-1.69-2.21-2.92a11,11,0,0,0-1-4.33,2.17,2.17,0,0,1-.21-1.09c0-1.49-.94-2.42-1.78-3.42,0-1.32.3-2.7-.84-4,1.09-.28.77-1,.85-1.7s-.54-1.71-.35-2c.51-.77.26-1.51.33-2.25a18.74,18.74,0,0,0,0-2.37c-.1-1.82,1-3.51.63-5.36a2.57,2.57,0,0,0,.48-3c-.7-1.81-.4-3.61-.51-5.42a4.3,4.3,0,0,0-.12-1.13,16.34,16.34,0,0,1-1.05-6.07c.17-2.82-1-5.52-.59-8.34.06-.39-.37-.48-.41-.72-.26-1.69-1.24-3-2.09-4.91a26.49,26.49,0,0,1,1.78-4.27c.93-1.64-1.24-3.15,0-4.78-1-1.27.19-3-1-4.36-.23-.27-.07-1.05.15-1.65a10.2,10.2,0,0,0,.11-5.92c-.27-1.19-.59-2.32-.9-3.48,1.27-1.22.08-2.43,0-3.65a10.25,10.25,0,0,0,1.18-6.19,3.41,3.41,0,0,0,.87-2.57,6.35,6.35,0,0,1,1.06-2.76c.6-1.07.18-2.09.52-3.06.67-.59.77-1.45,1.18-2.19l-.59-.67c.11-.35.65-.44.49-1.22-1.42-1.48-1.54-3.78-2.37-5.93l1.24-1c0-1.19-.4-2.48.09-3.06.63-.76.07-1.82.95-2.31a3,3,0,0,1-.47-2.08c0-.88,0-1.77,0-2.65,0-.38-.63-.42-.41-1,0-.1.59-.11.24-.49s-1.19.2-1.78-.65a36.54,36.54,0,0,0,2.37-9.3c-.9-.83-.24-2-.49-3.1l1.32-1c-.59-2.13.93-4,.47-5.92l1.13-.47c.14-.37.18-.72-.23-.94-.3.24-.49.65-1.09.53l-.56-.47c-.77-.59,0-1.68-.47-2.15a2.6,2.6,0,0,1-.47-2.46c.09-.79-.72-1.39-.31-2,.62-.89-.37-1.68-.11-2.23C11,536.06,9.78,534.18,9,532c1,0,.65-1,.91-1.51a21.11,21.11,0,0,0,.94-3.76c-1.26-1.57-.29-3.4-.59-5.08-.12-.59,1-.78.55-1.53-.35-.33-.7-.68-1.19-1.18.28-2.12-.48-4.41.48-6.62L9,511.19a1.41,1.41,0,0,0,.68-1.87l-.09-.16c-.81-1.4-.38-2.84-.54-4.24-.2-1.69.52-3.48-.56-5.1a1.15,1.15,0,0,1,.11-1.09c.69-.55.51-1.28.43-1.9a6,6,0,0,1,1.23-4.14c-.15-.73-.59-1.19-.67-1.92-.16-1.08.69-2,.16-3.1,1-.73,0-2,.85-2.84.49-.48.3-1.14.2-1.66-.15-.71-.78-1.28-.57-2.13.16-.65-.23-1.38.24-2s-.1-1.12.29-1.78a2,2,0,0,0-.45-2.3l1.12-1c-.22-.25-.6-.5-.56-.69.19-1.31-.42-2.65.38-4a2.54,2.54,0,0,0-.14-2.74,1.79,1.79,0,0,1-.16-1.62l1.12-.41c-.33-1.59.49-3.29-.54-4.78,1.32-1.59-.25-3.74,1-5.48.46-.64.08-1.91.08-2.72a4.56,4.56,0,0,1-1.19-2.66c0-.73.33-1.59-.53-2.14,1.12-.74.2-1.43,0-2.15a1.86,1.86,0,0,1,0-1.19c1.19-2.59,1-5.48,1.78-8.14a6.63,6.63,0,0,0,.46-3.49c-1.47-1.18-1.42-3-2.24-4.49-.46-.81.35-1.6.59-2.45-.73-.52-.7-1.48-1.27-2.14,1.4-1.66.31-3.08-.46-4.53a1.19,1.19,0,0,0,.43-1.62l-.11-.15A2.41,2.41,0,0,1,9.85,414a19.47,19.47,0,0,0,.05-6.77c-.32-2.64-1.77-5.27-.27-8,.47-.86-.21-1.82-.63-2.59.29-.5.76-.75.68-1.34s0-1.38,0-2.07.79-.83.62-1.54a1.65,1.65,0,0,1,.53-1.8c-.44-.41-.94-.87-.25-1.42s-.06-1.34.59-1.84c.45-.34-.69-1.11.27-1.45-1.05-.84-.49-2-.56-3s-.38-2.37.07-3.21c.59-1.11-.18-1.89-.19-2.81s.76-1.35.7-2.11a2,2,0,0,1-.38-2.62,3,3,0,0,0,.29-2.79c-.62-1.59-.17-3.35-1.15-4.64l.8-1a5.52,5.52,0,0,1-.82-1.69,19.79,19.79,0,0,1-.5-6.28,3.58,3.58,0,0,0-.63-2.1,10.77,10.77,0,0,0,.73-3.16,28,28,0,0,1,1.05-3.63l-.56-.63L12,343.66v-1.07c0-.37.67-.4.46-.84l-.45-.46a4.42,4.42,0,0,0,1.45-2.65c.37,0,.79.08.9-.47-.94-1.89-.59-3.9-.45-5.92,1-.55-.3-.84-.16-1.34s.76-1,.66-1.83a7.54,7.54,0,0,0-.59-1.54,4.77,4.77,0,0,1,0-2.06c.08-.66-.46-1-.59-1.54-.35-1.36-1-2.75-.59-4.18.3-1.18-.77-1.95-.6-3s1.19-1.67,1.19-2.77c0-.28-.07-.59.25-.78.71.13,1-.47,1.42-.84.35-.77-.27-1.74.59-2.45a1.41,1.41,0,0,0,.07-1.38c-1.14-1.48,0-3.41-1.12-4.89-.34-.45.11-1.07.52-1.48-1.18-2.52-1.24-3.3-1.18-6.15a11.86,11.86,0,0,0-.74-2.91c-.36-.14-.82,0-1-.6.39-.78.84-1.67,1.27-2.49-.18-.55-.83-.74-.59-1.4l.63-.71c-.87-.17-.7-.84-.65-1.41a15.05,15.05,0,0,1,1.14-3.37c.42-1.24-.51-2.7.51-3.94.2-.24-.06-.88.14-1.1,1.18-1.27.35-2.46-.13-3.68.9-.56,1.06-1.37.44-2-1.12-1.15.2-1.94.31-2.88.14-1.1-1.37-2-.47-2.92.74-.8.06-1.73.77-2.71l.83-.72c-.24-.36-.69-.53-.59-1.1,1.18-1.32,2.22-3.1,1.61-4.74a4.55,4.55,0,0,1,.11-3.42A10.52,10.52,0,0,0,18,250a8.54,8.54,0,0,1,.43-3.65c.46-1.24.14-2.77,1.22-4a1.14,1.14,0,0,0-.31-1.57c-.32-.21-.16-.52-.19-.65l1.19-2.26a8.31,8.31,0,0,1-1.22-4.61,3.91,3.91,0,0,0-.42-2.37c.83-.71.24-1.67.42-2.48.48-2.15-.9-4.15-.45-6.86l1.34-.55c-1.45-.59-1.36-1.66-1.68-2.54-.54-1.5-.59-3.1-1-4.62,1-1.91.43-3.95.6-5.84l-1.78-1.78c0-1.66.29-3.43-1.19-4.73l1.19-1.19c-.18-1.88.42-3.92-.59-5.83.64-1.25.59-1.23.2-2.26-.24-.68-.85-1.21-.81-2,.1-1.66-.2-3.33.32-4.95-.29-.05-.6.12-1-.5.77-1.24-.59-2.44-.53-3.86.31-.6,1.1-.84,1.23-1.78-1.07-1.07-1.15-2.37-.67-3.94.59-1.95-1.4-3.69-.65-5.72-.94-.79-.06-2.05-.56-2.72-.81-1.09.56-1.89.06-2.81.86-1,.51-2.17.59-3.19.9-1.19,1.72-2.31.92-3.48-.23-.55.45-.5.06-1l-.4-.37a1.21,1.21,0,0,0,.37-1.68l-1.05-.59h.66c-.28-3.17.59-5.84,3-7.74-.54-1.45-.54-1.45.05-2.68a4.63,4.63,0,0,1,0-4.84l-1-2a13.79,13.79,0,0,1,1.73-5.19c-.34-.44-.77-.6-.69-1.08l1.18-2.29c-1-1.78-.38-3.56-.62-5.1l1.36-1.25c-.59-1,.26-1.9.49-2.75l-.59-.73,1.1-1.11c-1.38-1.32,0-2.61.1-4.15-2-1.37-2.3-3.83-2.93-6-.49-1.69.17-3.63-.68-5.36a.65.65,0,0,1,0-.56c.86-.75.41-2,1.23-2.65l-.59-1,.5-.5-1.36-1.45L18,94.52c-.52-.85-1.25-.91-1.57-1.3-1.52-2.11-.19-4.62-1.1-6.71-1.07-2.46.67-4.66.2-7.11-1.64-.49-.67-2.79-2.3-3.27V74.21c-1.09-.7-1.25-2.15-2.37-2.9.17-1-.38-2,.53-3a1.73,1.73,0,0,0,0-1.68c-1-1-.43-2.34-1-3.47s-.11-2.49-.11-3.72c1-.9,1-2.22,1.5-3.3s.2-2.55.81-3.81c.51-1-.49-2.51.63-3.55-.23-.29-.66-.46-.5-1.31l.87-.52c.51-1.41-.09-2.48.73-3.49a2.39,2.39,0,0,0,0-2.25c-.77-1-.47-2-.51-3.06-.06-1.37,0-2.76,0-4.14a4.56,4.56,0,0,1-1.19-3.66c.07-1.77,0-3.55,0-5.24L11.53,24l.69-1.12c-1.42-.23-.41-1.44-1-2.11-.34-.18-.81,0-.9-.2-.19-2-.59-3.75-1.66-4.84-.86-3,.75-5.41.36-8S10,2.59,10.26,0H5.52V605.65c0,8.58,0,17.18,0,25.75a17.33,17.33,0,0,0,.11,3.29v502H17.4C15.64,1134.22,15.67,1131.26,14.45,1128.76Z" transform="translate(-5.46 0.01)"/><path class="cls-1" d="M14.45,2148.16c1.06-1,.21-2.33.53-3.44-.27-.38-.72-.53-.62-1.12,1.18-1.18.94-3,1.6-4.41,0-.24-.59-.26-.19-.73l.68-.59-1.6-.83c1.42-1.25-.09-3.07,1.19-4.15-.87-.59-.18-1.88-1.11-2.43.23-.3.59-.47.59-.95-.08-2.19-1.3-4-1.77-6,1.33-1.57-.23-3.73,1.37-5.33-1.82-1.09.08-3.2-1.39-4.44a4.78,4.78,0,0,0-.68-4.53c-1-1.51.31-3.35-1.19-4.51l.73-1c-.08-.72-1.13-1.36-.57-2.07a3.56,3.56,0,0,0,.53-2.75,3.46,3.46,0,0,1,.87-2.3c.64-.89,1.58-1.56.45-2.68,1-1.52-.6-3-.13-4.51a1.39,1.39,0,0,0-.34-1.34c-.54-.64-.2-1.44-.11-2.37l1.42-.91-1.28-.79c-.73-1.35.49-1.77.34-2.54-1-1.36-.72-2.68,0-4.06-.15-.19-.47-.41-.48-.63,0-2.64,0-5.27,0-8.29l1.18-.7c-.59-1.27-1.18-2.27-.31-3.4.59-.75-.28-1.95.82-2.62.94-.6.35-2.11,1.48-2.63.09-1.78,1.54-3.44.5-5.43a3.27,3.27,0,0,1,.06-3.31c.85-1.14-.14-1.78-.27-2.42.44-1.18.81-2.21,1.19-3.25-1-.93-.69-1.84,0-2.72a2.33,2.33,0,0,1-.35-2.93,2.4,2.4,0,0,0,.27-1.66,17.14,17.14,0,0,1,1.18-5.74l-.69-.75,1.31-1V2025l1-.41c.39-.93-.49-1-.41-1.6-.21-.55.72-.59.59-1.19a.92.92,0,0,0,.15-1.08c-1.4-2.81-1-5.67-.43-8.61a14.31,14.31,0,0,0,0-6.38c-1.35-5,.22-8.5.7-13.39,0-.39-.45-1.91-.45-2.31-.86-.16-.5-1.24-1.19-1.7.31-1.35-.49-2.87.6-4.14-.19-.31-.6-.46-.56-1a8.29,8.29,0,0,0-.91-4.64,3.11,3.11,0,0,1-.2-2.53c1.06-2.19.51-4.24-.07-6.08,0-1.13,1.22-1.25,1.18-2.33.46-1-1-1.14-1.18-2a20.88,20.88,0,0,1,0-3c.14-1-.83-1.66-.67-2.73a4.46,4.46,0,0,0-1.26-4.37c.93-1.28-.17-2.37.08-3.55a3.49,3.49,0,0,0-1.07-3.34c-.55-2,1.06-3.66.49-5.49.55-.27,1-.1,1.19-.55s-.41-.77-.52-1.18c.66-.36.51-1,.52-1.56V1938l1.63-1.62c.34-.81-.19-1.62.38-2.12.93-.82-.59-1.88.36-2.63a10.48,10.48,0,0,1,0-7.52,2.58,2.58,0,0,0-.13-1.69,11.79,11.79,0,0,1-1-6l-1.19-.8a20,20,0,0,0-.2-3.19c-1.35-5.51-2-8.78-1.65-12.44a1.74,1.74,0,0,0,0-.88c-.86-1.45-1-3.16-1.42-4.73a30.4,30.4,0,0,0-2.06-4.51c-.25-.59-.71-.88-1-1.36-1.11-2.15-.63-4.74-2-6.83,1.18-2.09.11-4.4.63-6.55l1.08-1.08c0-1.94.06-3.91,0-5.87s1.42-3.38,1.89-5.22l-1.53-1.69c.94-.42.59-1.54,1.41-2,.15-2.89.14-5.7-1.61-8.24a1.84,1.84,0,0,1,.19-2.15,1.73,1.73,0,0,0,.2-1.92,3.54,3.54,0,0,1-.49-2.76c.13-1-.74-1.78-.59-2.71.27-1.7-.46-3.23-.77-4.74a11.29,11.29,0,0,0-.88-3.47,10.15,10.15,0,0,1-1.27-4.46c-.05-1.68-.59-3.42.43-5.14a2.48,2.48,0,0,0-.33-2.75c-.45-.52-.16-1.3-.13-2l1-1c.32-.77-.33-1.77.63-2.4.34-2.31,1.26-4.51,1.25-6.89a3,3,0,0,1,.38-1.93c.56-.82.16-1.74-.35-2.64s1.14-1.81.42-3c-.1-.16-.37-.26-.4-.42-.36-1.67-1-3.36-.93-5,.15-2.73.59-5.46.86-8.2.33-3.46-.64-7,.6-10.41a1.46,1.46,0,0,0,0-1.16c-1-1.07-.65-2.49-1.06-3.71s-.1-2.73-.1-4.11c.26-.89,1.25-1.41,1.19-2.47a12,12,0,0,0-.08-3c-.37-1.05,1.57-1.85.14-2.82,1.23-.85-.06-1.64-.11-2.44a25.89,25.89,0,0,1,1.38-9.52,5.41,5.41,0,0,0,.4-2.18,9.55,9.55,0,0,1,.82-4.41,5.33,5.33,0,0,0,0-3.83c-1.5-4.64-1.92-4-.37-9,.56-1.83,1.78-3.56,1.24-5.84l1.24-.59a3,3,0,0,1-.21-3.38,2.56,2.56,0,0,0,.17-2.24c-.75-1.35-.32-2.81-.59-4.14-1.73-.31-2.15-1.69-2.21-2.92a11.18,11.18,0,0,0-1-4.33,2.3,2.3,0,0,1-.21-1.1c0-1.48-.93-2.4-1.78-3.4,0-1.33.3-2.71-.84-4,1.09-.28.77-1,.85-1.71s-.54-1.7-.35-2c.51-.78.26-1.51.33-2.25a18.74,18.74,0,0,0,0-2.37c-.1-1.83,1-3.52.63-5.37a2.57,2.57,0,0,0,.47-3c-.69-1.81-.4-3.61-.5-5.41a4.33,4.33,0,0,0-.12-1.14,16.34,16.34,0,0,1-1.05-6.07c.16-2.81-1-5.51-.59-8.34.06-.38-.37-.48-.41-.72-.26-1.69-1.24-3-2.09-4.91a25.44,25.44,0,0,1,1.78-4.26c.93-1.64-1.24-3.15,0-4.79-1-1.27.19-3-1-4.36-.22-.26-.06-1,.16-1.64a10.24,10.24,0,0,0,.11-5.93c-.27-1.18-.59-2.31-.91-3.47,1.28-1.22.09-2.44,0-3.65a10.17,10.17,0,0,0,1.19-6.19,3.45,3.45,0,0,0,.87-2.57,6.35,6.35,0,0,1,1.06-2.76c.6-1.07.17-2.09.52-3.06.67-.59.77-1.45,1.18-2.19l-.59-.68c.11-.34.65-.43.49-1.21-1.43-1.47-1.54-3.78-2.37-5.93l1.23-1c0-1.18-.38-2.48.11-3.07.62-.75.07-1.81.94-2.31a2.93,2.93,0,0,1-.46-2.06c0-.89,0-1.78,0-2.67,0-.37-.64-.41-.41-1,0-.1.59-.11.24-.49-.5-.35-1.18.2-1.78-.66a36,36,0,0,0,2.37-9.29c-.9-.83-.24-2-.49-3.1l1.32-1c-.59-2.12.93-3.95.47-5.92l1.14-.47c.13-.37.17-.72-.24-.94-.3.23-.49.65-1.09.53-.13-.11-.34-.29-.56-.46-.77-.59,0-1.69-.47-2.15a2.62,2.62,0,0,1-.47-2.47c.09-.8-.72-1.39-.31-2,.62-.89-.36-1.68-.11-2.23,1.07-2.29-.13-4.17-.89-6.38,1,0,.65-1,.91-1.51a21.22,21.22,0,0,0,.94-3.75c-1.26-1.57-.28-3.41-.59-5.09-.11-.59,1-.78.55-1.53l-1.19-1.18c.28-2.12-.48-4.41.48-6.62L9,1530.6a1.41,1.41,0,0,0,.69-1.86,1.62,1.62,0,0,0-.1-.18c-.81-1.39-.38-2.82-.54-4.22-.19-1.7.52-3.49-.55-5.11a1.12,1.12,0,0,1,.1-1.09c.69-.55.51-1.27.43-1.9a5.93,5.93,0,0,1,1.24-4.14c-.16-.73-.6-1.22-.68-1.92-.16-1.08.69-2.06.16-3.11,1-.72,0-2,.85-2.83.49-.48.3-1.18.19-1.66-.14-.71-.77-1.29-.56-2.14.17-.64-.24-1.37.24-2s-.1-1.13.29-1.78a2,2,0,0,0-.45-2.3l1.12-1c-.22-.25-.6-.5-.56-.68.19-1.32-.41-2.66.38-4a2.53,2.53,0,0,0-.14-2.73,1.79,1.79,0,0,1-.16-1.62l1.12-.41c-.33-1.6.49-3.3-.54-4.78,1.32-1.59-.25-3.74,1-5.48.46-.64.08-1.9.08-2.72a4.53,4.53,0,0,1-1.19-2.65c0-.74.33-1.6-.52-2.14,1.11-.75.19-1.43,0-2.17a1.71,1.71,0,0,1,0-1.18c1.18-2.59,1-5.48,1.77-8.14a6.66,6.66,0,0,0,.46-3.5c-1.46-1.18-1.42-3-2.25-4.49-.45-.81.37-1.59.6-2.44-.73-.52-.71-1.48-1.28-2.14,1.4-1.67.31-3.08-.46-4.53a1.19,1.19,0,0,0,.44-1.62l-.11-.16a2.36,2.36,0,0,1-.23-2.43,19.72,19.72,0,0,0,.05-6.77c-.33-2.64-1.78-5.27-.28-8,.47-.87-.2-1.83-.62-2.59.29-.51.75-.75.68-1.35s0-1.38,0-2.06.8-.83.62-1.54a1.65,1.65,0,0,1,.54-1.8c-.44-.42-.94-.87-.26-1.42s-.06-1.34.59-1.85c.46-.34-.68-1.11.28-1.44-1-.84-.48-2-.56-3s-.38-2.37.07-3.21c.59-1.12-.18-1.9-.19-2.82s.76-1.34.7-2.11a2,2,0,0,1-.37-2.62,3,3,0,0,0,.28-2.79c-.62-1.59-.17-3.34-1.15-4.64l.8-1a5.7,5.7,0,0,1-.82-1.68,19.5,19.5,0,0,1-.49-6.28,3.74,3.74,0,0,0-.64-2.1,10.77,10.77,0,0,0,.73-3.16,27,27,0,0,1,1.05-3.64l-.56-.62,1.77-1.78V1362c0-.39.67-.39.46-.84l-.45-.45a4.49,4.49,0,0,0,1.46-2.65c.36,0,.79.08.9-.47-.95-1.9-.59-3.91-.45-5.92,1-.55-.31-.85-.16-1.35s.76-1,.66-1.82a7.54,7.54,0,0,0-.59-1.54,4.77,4.77,0,0,1,0-2.06c.08-.67-.46-1-.59-1.54-.35-1.37-1-2.76-.6-4.18.3-1.18-.77-2-.59-3s1.19-1.67,1.19-2.76c0-.29-.07-.6.24-.79.71.13,1-.46,1.43-.84.34-.76-.28-1.73.59-2.44a1.43,1.43,0,0,0,.06-1.39c-1.14-1.47,0-3.41-1.11-4.89-.34-.45.11-1.07.52-1.48-1.18-2.51-1.24-3.3-1.18-6.15a11.67,11.67,0,0,0-.74-2.9c-.37-.15-.82,0-1.05-.6l1.27-2.5c-.17-.54-.82-.74-.59-1.4l.63-.7c-.87-.17-.7-.84-.65-1.41a14.88,14.88,0,0,1,1.14-3.37c.42-1.25-.51-2.7.51-3.94.2-.24-.06-.89.14-1.11,1.18-1.26.35-2.46-.13-3.68.9-.55,1.06-1.36.44-2-1.12-1.15.2-1.93.32-2.88s-1.38-2-.48-2.92c.74-.8.06-1.72.77-2.71l.83-.71c-.24-.37-.69-.54-.59-1.11,1.18-1.32,2.23-3.1,1.62-4.74a4.52,4.52,0,0,1,.11-3.41,10.6,10.6,0,0,0,.66-3.9,8.82,8.82,0,0,1,.43-3.64c.47-1.25.15-2.78,1.23-4a1.14,1.14,0,0,0-.31-1.56c-.32-.22-.17-.53-.19-.66l1.19-2.25a8.33,8.33,0,0,1-1.22-4.61,4,4,0,0,0-.42-2.37c.83-.71.23-1.67.42-2.49.48-2.14-.9-4.14-.45-6.86l1.34-.54c-1.46-.59-1.36-1.67-1.68-2.54-.54-1.5-.59-3.1-1-4.62,1-1.91.43-4,.59-5.84l-1.77-1.78c0-1.66.29-3.43-1.19-4.73l1.19-1.19c-.19-1.88.42-3.92-.6-5.83.64-1.26.6-1.23.21-2.26-.24-.69-.86-1.21-.81-2,.1-1.66-.2-3.33.31-5-.29,0-.59.12-1-.49.76-1.25-.59-2.45-.53-3.86.31-.6,1.1-.85,1.23-1.78-1.07-1.07-1.16-2.37-.67-3.94.59-2-1.4-3.69-.65-5.72-.94-.79-.06-2-.56-2.71-.82-1.1.56-1.89.06-2.81.86-1,.51-2.18.59-3.2.9-1.19,1.71-2.31.92-3.48-.24-.55.44-.5,0-1l-.39-.37c.35-.34.8-.6.37-1.68l-1-.59h.66c-.28-3.17.59-5.84,2.93-7.74-.53-1.45-.53-1.45.05-2.68a4.68,4.68,0,0,1,0-4.84l-1-2a14,14,0,0,1,1.73-5.19c-.34-.44-.77-.6-.69-1.08l1.19-2.29c-1-1.78-.39-3.56-.62-5.1l1.35-1.25c-.59-1,.26-1.9.49-2.75l-.59-.73,1.11-1.11c-1.39-1.32,0-2.61.09-4.15-2-1.37-2.29-3.82-2.93-6-.49-1.68.17-3.63-.67-5.33a.64.64,0,0,1,0-.57c.86-.74.41-2,1.23-2.65l-.59-1,.5-.5-1.36-1.46L18,1114c-.51-.84-1.25-.9-1.57-1.3-1.52-2.1-.19-4.62-1.1-6.71-1.07-2.45.67-4.66.2-7.11-1.63-.49-.67-2.78-2.3-3.27v-1.9c-1.08-.7-1.25-2.14-2.37-2.9.17-1-.37-2,.53-3a1.68,1.68,0,0,0,0-1.68c-1-1-.42-2.33-1-3.46s-.1-2.5-.1-3.73c1-.9,1-2.22,1.49-3.29s.21-2.56.82-3.81c.5-1.06-.5-2.52.62-3.56-.23-.29-.65-.46-.5-1.31l.88-.52c.5-1.41-.09-2.48.72-3.48a2.39,2.39,0,0,0,0-2.25c-.76-1-.46-2-.51-3.06-.06-1.38,0-2.77,0-4.15a4.53,4.53,0,0,1-1.18-3.65c.07-1.78,0-3.55,0-5.24l-1.11-1.11.69-1.12c-1.42-.23-.41-1.44-1-2.11-.34-.18-.81,0-.89-.2-.2-2-.6-3.76-1.67-4.84-.86-2.93.75-5.41.37-8s.95-5.09,1.18-7.69H5.52v605.66c0,8.58,0,17.17,0,25.75a16.21,16.21,0,0,0,.11,3.28v502H17.39C15.64,2153.62,15.67,2150.66,14.45,2148.16Z" transform="translate(-5.46 0.01)"/><path class="cls-1" d="M14.45,3180.82c1.06-1,.21-2.34.52-3.45-.26-.37-.71-.52-.59-1.11,1.19-1.18.95-3,1.61-4.41-.05-.25-.6-.26-.2-.73l.68-.59-1.59-.84c1.41-1.24-.1-3.07,1.18-4.15-.86-.59-.18-1.88-1.11-2.43.23-.3.6-.47.6-1-.09-2.18-1.31-4-1.78-6,1.33-1.56-.23-3.73,1.37-5.33-1.82-1.09.08-3.2-1.39-4.44a4.75,4.75,0,0,0-.68-4.53c-1-1.51.32-3.35-1.18-4.52l.72-1c-.08-.73-1.13-1.36-.56-2.08a3.57,3.57,0,0,0,.52-2.74,3.51,3.51,0,0,1,.87-2.31c.64-.89,1.59-1.55.45-2.68,1-1.52-.59-3-.13-4.5a1.38,1.38,0,0,0-.33-1.34c-.54-.64-.21-1.44-.12-2.37l1.42-.92-1.28-.78c-.72-1.36.49-1.77.34-2.54-1-1.37-.71-2.68,0-4.07-.15-.19-.47-.4-.48-.59,0-2.64,0-5.27,0-8.29l1.19-.7c-.59-1.28-1.19-2.28-.32-3.4.59-.75-.28-2,.83-2.63.93-.59.35-2.1,1.48-2.63.08-1.78,1.54-3.44.5-5.43a3.25,3.25,0,0,1,.05-3.31c.85-1.14-.13-1.77-.26-2.42l1.18-3.24c-1-.93-.68-1.85,0-2.72a2.37,2.37,0,0,1-.35-3A2.37,2.37,0,0,0,18,3070a16.86,16.86,0,0,1,1.19-5.73c-.19-.22-.4-.43-.7-.76l1.32-1v-4.85l1-.4c.4-.93-.49-1-.41-1.6-.2-.56.73-.59.59-1.19a.94.94,0,0,0,.16-1.08c-1.41-2.81-1-5.67-.44-8.61a14.31,14.31,0,0,0,0-6.38c-1.35-5.05.23-8.5.7-13.39,0-.39-.45-1.91-.45-2.3-.86-.16-.5-1.25-1.18-1.7.3-1.36-.49-2.88.59-4.15-.18-.3-.59-.45-.56-.94a8.27,8.27,0,0,0-.91-4.66,3.12,3.12,0,0,1-.2-2.52c1.07-2.19.51-4.24-.07-6.08,0-1.13,1.22-1.25,1.18-2.33.46-1-1-1.15-1.18-2a20.88,20.88,0,0,1,0-3c.14-1-.83-1.66-.67-2.73a4.46,4.46,0,0,0-1.26-4.37c.93-1.28-.17-2.37.08-3.55a3.49,3.49,0,0,0-1.07-3.34c-.55-2,1.06-3.67.5-5.5.55-.26,1-.09,1.18-.54s-.4-.78-.52-1.19c.66-.35.51-1,.53-1.55v-1.94L19,2969c.34-.81-.19-1.62.38-2.12.93-.82-.59-1.88.37-2.63a10.46,10.46,0,0,1,0-7.51,2.61,2.61,0,0,0-.12-1.7,11.9,11.9,0,0,1-1-6l-1.18-.8a20,20,0,0,0-.21-3.19c-1.35-5.51-2-8.78-1.64-12.43a1.74,1.74,0,0,0,0-.88c-.87-1.46-1-3.16-1.43-4.74a30,30,0,0,0-2.05-4.49c-.26-.6-.72-.89-1-1.38-1.11-2.13-.63-4.73-2-6.82,1.19-2.09.11-4.4.63-6.55l1.09-1.09c0-1.93.05-3.89,0-5.86s1.41-3.39,1.89-5.22l-1.54-1.69c1-.42.6-1.54,1.41-2,.16-2.89.15-5.71-1.6-8.24a1.85,1.85,0,0,1,.18-2.16,1.73,1.73,0,0,0,.2-1.92,3.58,3.58,0,0,1-.49-2.76c.14-1-.74-1.77-.59-2.71.28-1.69-.46-3.23-.76-4.74a11.33,11.33,0,0,0-.89-3.46,10.14,10.14,0,0,1-1.26-4.47c0-1.67-.6-3.41.42-5.13a2.5,2.5,0,0,0-.32-2.75c-.46-.52-.17-1.29-.14-2l1.05-1.05c.32-.77-.34-1.78.63-2.41.33-2.3,1.26-4.51,1.25-6.88a3,3,0,0,1,.37-1.93c.56-.81.16-1.74-.34-2.64s1.14-1.82.42-3c-.11-.17-.37-.27-.41-.43-.35-1.67-1-3.36-.93-5,.16-2.73.6-5.46.87-8.19.32-3.47-.64-7,.59-10.42a1.51,1.51,0,0,0,0-1.15c-1-1.07-.65-2.5-1.06-3.72s-.1-2.73-.1-4.11c.26-.89,1.25-1.4,1.19-2.47a12,12,0,0,0-.08-3c-.36-1,1.58-1.85.14-2.82,1.24-.85,0-1.63-.11-2.43a26.12,26.12,0,0,1,1.38-9.53,5.25,5.25,0,0,0,.4-2.18,9.58,9.58,0,0,1,.82-4.41,5.33,5.33,0,0,0,0-3.83c-1.51-4.64-1.92-4-.38-9,.57-1.83,1.78-3.55,1.25-5.84l1.24-.59a2.94,2.94,0,0,1-.21-3.38,2.54,2.54,0,0,0,.16-2.23c-.75-1.36-.32-2.81-.59-4.15-1.73-.3-2.15-1.68-2.21-2.92a11.39,11.39,0,0,0-1-4.33,2.16,2.16,0,0,1-.22-1.09c0-1.48-.93-2.41-1.78-3.41-.05-1.32.3-2.71-.84-4,1.09-.28.78-1,.85-1.71s-.53-1.7-.34-2c.5-.79.26-1.52.32-2.25a18.74,18.74,0,0,0,0-2.37c-.09-1.83,1-3.52.63-5.37a2.57,2.57,0,0,0,.48-3c-.69-1.78-.4-3.61-.51-5.41a4.8,4.8,0,0,0-.11-1.14,16.15,16.15,0,0,1-1.06-6.07c.17-2.81-1-5.52-.59-8.34.06-.38-.37-.48-.4-.72-.27-1.69-1.25-3-2.09-4.91a24.38,24.38,0,0,1,1.77-4.26c.93-1.64-1.23-3.16-.05-4.79-1-1.27.19-3-1-4.35-.23-.27-.07-1.06.15-1.66a10.2,10.2,0,0,0,.11-5.92c-.26-1.18-.59-2.31-.9-3.47,1.28-1.22.08-2.43,0-3.65a10.25,10.25,0,0,0,1.18-6.19,3.45,3.45,0,0,0,.88-2.57,6.23,6.23,0,0,1,1.06-2.76c.59-1.07.17-2.09.51-3.06.68-.59.77-1.45,1.19-2.19l-.6-.68c.11-.34.65-.43.49-1.22-1.42-1.47-1.54-3.76-2.37-5.92l1.24-1c0-1.18-.39-2.48.1-3.06.63-.76.07-1.82,1-2.31a3,3,0,0,1-.47-2.07c0-.89,0-1.78,0-2.67,0-.36-.63-.4-.41-1,0-.1.59-.11.24-.49s-1.18.2-1.77-.65a36.85,36.85,0,0,0,2.37-9.3c-.9-.83-.25-2-.5-3.09l1.32-1c-.59-2.12.93-4,.47-5.92l1.14-.47c.14-.37.18-.72-.24-.94-.3.23-.48.64-1.09.52l-.56-.46c-.77-.59,0-1.68-.46-2.15a2.62,2.62,0,0,1-.48-2.47c.09-.8-.72-1.38-.3-2,.62-.89-.37-1.68-.12-2.23,1.07-2.29-.13-4.15-.89-6.38,1,0,.66-1,.91-1.52a20.19,20.19,0,0,0,.94-3.75c-1.26-1.57-.28-3.4-.59-5.08-.11-.59,1-.79.55-1.53L9.68,2571c.28-2.12-.49-4.42.48-6.63l-1.1-1.09a1.41,1.41,0,0,0,.68-1.88.65.65,0,0,0-.09-.16c-.81-1.39-.37-2.83-.53-4.23-.2-1.69.52-3.48-.56-5.1a1.09,1.09,0,0,1,.11-1.09c.68-.55.5-1.28.43-1.9a5.91,5.91,0,0,1,1.23-4.15c-.15-.72-.59-1.21-.68-1.91-.16-1.09.7-2.06.16-3.11,1-.73,0-2,.85-2.83.5-.48.3-1.15.2-1.67-.15-.71-.77-1.28-.57-2.13.17-.64-.23-1.38.24-2s-.1-1.12.29-1.77a2,2,0,0,0-.44-2.31l1.11-1c-.21-.24-.59-.49-.56-.68.19-1.31-.41-2.65.38-4a2.54,2.54,0,0,0-.13-2.74A1.77,1.77,0,0,1,11,2517l1.13-.41c-.34-1.6.49-3.3-.54-4.78,1.31-1.59-.25-3.75,1-5.48.47-.64.08-1.91.08-2.72A4.6,4.6,0,0,1,11.5,2501c0-.74.32-1.6-.53-2.14,1.11-.74.19-1.43,0-2.16a1.83,1.83,0,0,1,0-1.18c1.18-2.59,1-5.48,1.78-8.14a6.66,6.66,0,0,0,.45-3.5c-1.46-1.18-1.42-3.05-2.24-4.49-.46-.8.36-1.59.59-2.44-.73-.52-.7-1.48-1.27-2.14,1.39-1.67.3-3.08-.47-4.53a1.18,1.18,0,0,0,.44-1.62l-.11-.16a2.38,2.38,0,0,1-.23-2.43,19.47,19.47,0,0,0,0-6.77c-.33-2.64-1.77-5.26-.28-8,.48-.87-.2-1.82-.62-2.59.29-.51.75-.75.68-1.34s0-1.38,0-2.07.8-.83.63-1.54a1.63,1.63,0,0,1,.53-1.8c-.44-.41-.94-.87-.26-1.42s-.06-1.34.6-1.84c.45-.35-.68-1.12.27-1.45-1-.84-.48-2-.56-3s-.38-2.36.07-3.2c.6-1.12-.17-1.9-.19-2.81s.77-1.35.71-2.12a2,2,0,0,1-.38-2.62,3,3,0,0,0,.28-2.79c-.62-1.58-.17-3.34-1.15-4.63l.8-1a5.5,5.5,0,0,1-.81-1.69,19.51,19.51,0,0,1-.5-6.28,3.65,3.65,0,0,0-.63-2.1,10.82,10.82,0,0,0,.72-3.17,28.43,28.43,0,0,1,1-3.63l-.56-.62,1.78-1.78v-1.07c0-.38.67-.4.46-.84l-.45-.45a4.47,4.47,0,0,0,1.45-2.66c.37,0,.79.08.91-.46-.95-1.9-.6-3.91-.46-5.93,1-.55-.3-.84-.15-1.34s.75-1,.65-1.83a7.77,7.77,0,0,0-.59-1.54,4.73,4.73,0,0,1,0-2c.08-.67-.46-1-.59-1.54-.34-1.37-.95-2.76-.59-4.18.3-1.19-.77-2-.6-3s1.19-1.67,1.19-2.77c0-.28-.07-.59.25-.78.71.12,1-.46,1.42-.84.35-.77-.27-1.73.59-2.45a1.41,1.41,0,0,0,.07-1.38c-1.15-1.47,0-3.41-1.12-4.89-.34-.45.11-1.07.52-1.49-1.18-2.51-1.24-3.29-1.18-6.14a11.86,11.86,0,0,0-.74-2.91c-.36-.14-.82,0-1.05-.59.4-.78.85-1.68,1.27-2.51-.17-.54-.82-.73-.59-1.39l.64-.7c-.88-.18-.7-.85-.66-1.41a15.22,15.22,0,0,1,1.14-3.37c.43-1.25-.5-2.71.52-4,.2-.24-.07-.89.13-1.1,1.19-1.27.36-2.46-.13-3.68.91-.55,1.06-1.36.45-2-1.13-1.15.2-1.94.31-2.88.13-1.1-1.37-2-.48-2.93.74-.79.07-1.71.78-2.7l.82-.72c-.24-.36-.68-.53-.59-1.1,1.19-1.32,2.23-3.1,1.63-4.74a4.5,4.5,0,0,1,.1-3.42,10.73,10.73,0,0,0,.67-3.89,8.81,8.81,0,0,1,.42-3.64c.48-1.25.16-2.78,1.23-4a1.13,1.13,0,0,0-.3-1.56c-.32-.22-.18-.53-.19-.66l1.18-2.26a8.36,8.36,0,0,1-1.22-4.6,4,4,0,0,0-.41-2.37c.83-.72.23-1.67.41-2.5.49-2.14-.9-4.14-.45-6.85l1.35-.54c-1.46-.59-1.37-1.67-1.69-2.55-.54-1.5-.59-3.1-1-4.62,1-1.91.43-3.95.6-5.84-.66-.65-1.22-1.18-1.78-1.77,0-1.66.29-3.43-1.18-4.74l1.18-1.19c-.18-1.87.42-3.92-.59-5.82.64-1.26.59-1.24.21-2.27-.25-.69-.86-1.21-.82-2,.1-1.65-.2-3.33.32-4.95-.29-.05-.59.12-1-.49.77-1.25-.59-2.46-.53-3.87.31-.59,1.1-.85,1.23-1.78a3.62,3.62,0,0,1-.67-3.94c.59-1.94-1.4-3.7-.65-5.72-.93-.78-.06-2-.56-2.71-.81-1.1.56-1.89.06-2.82.86-1,.51-2.18.6-3.19.9-1.18,1.71-2.31.91-3.48-.24-.55.45-.49.06-.94l-.39-.39c.34-.33.79-.62.36-1.67l-1-.59h.66c-.28-3.17.59-5.83,2.93-7.73-.53-1.45-.53-1.45.06-2.69a4.63,4.63,0,0,1,0-4.84l-1.05-2a14.15,14.15,0,0,1,1.73-5.19c-.33-.44-.77-.59-.68-1.08l1.18-2.29c-1-1.78-.38-3.55-.62-5.11l1.36-1.23c-.6-1,.26-1.91.49-2.76l-.6-.73L20.3,2169c-1.38-1.31,0-2.61.09-4.14-2-1.38-2.29-3.83-2.92-6-.5-1.68.17-3.63-.68-5.35a.59.59,0,0,1,0-.56c.85-.75.4-2,1.22-2.65-.26-.42-.44-.7-.59-1l.5-.5-1.36-1.45,1.41-.81c-.52-.86-1.25-.92-1.57-1.31-1.52-2.1-.19-4.62-1.1-6.71-1.07-2.45.67-4.66.2-7.11-1.63-.49-.67-2.79-2.3-3.27v-1.91c-1.09-.69-1.25-2.14-2.37-2.9.17-1-.37-2,.53-3a1.73,1.73,0,0,0,0-1.68c-1-1-.43-2.33-1-3.46s-.1-2.49-.1-3.72c1-.91,1-2.23,1.5-3.3s.2-2.55.8-3.81c.51-1.06-.48-2.52.64-3.55-.24-.29-.66-.47-.51-1.32l.88-.51c.5-1.41-.09-2.49.72-3.49a2.36,2.36,0,0,0,0-2.25c-.76-1-.46-2-.51-3.06-.06-1.38,0-2.76,0-4.14a4.6,4.6,0,0,1-1.18-3.66c.06-1.78,0-3.56,0-5.24l-1.1-1.11.69-1.12c-1.42-.23-.41-1.45-1-2.11-.34-.18-.81,0-.9-.21-.19-2.05-.59-3.74-1.66-4.83-.86-3,.75-5.41.37-8s.94-5.1,1.18-7.7H5.53v605.66c0,8.58,0,17.17,0,25.74a15.57,15.57,0,0,0,.12,3.29v502H17.41C15.6,3186.24,15.67,3183.29,14.45,3180.82Z" transform="translate(-5.46 0.01)"/><path class="cls-1" d="M14.45,4200.19c1.06-1,.21-2.37.52-3.45-.26-.37-.71-.52-.59-1.11,1.19-1.18.95-3,1.61-4.41-.05-.25-.6-.26-.2-.74l.68-.59-1.59-.83c1.41-1.25-.1-3.07,1.18-4.15-.86-.59-.18-1.88-1.11-2.44.23-.3.6-.45.6-.95-.09-2.18-1.31-4-1.78-6,1.33-1.57-.23-3.73,1.37-5.33-1.82-1.09.08-3.2-1.39-4.43a4.77,4.77,0,0,0-.68-4.54c-1-1.5.32-3.35-1.18-4.51l.72-1.05c-.08-.72-1.13-1.36-.56-2.07a3.6,3.6,0,0,0,.52-2.75,3.5,3.5,0,0,1,.87-2.3c.64-.89,1.59-1.56.45-2.68,1-1.52-.59-3-.13-4.51a1.38,1.38,0,0,0-.33-1.34c-.54-.64-.21-1.44-.12-2.37l1.42-.92-1.28-.78c-.72-1.35.49-1.77.34-2.54-1-1.36-.71-2.68,0-4.06-.15-.2-.47-.41-.48-.63,0-2.64,0-5.27,0-8.29l1.19-.7c-.59-1.27-1.19-2.28-.32-3.39.59-.76-.28-2,.83-2.63.93-.6.35-2.11,1.48-2.63.08-1.81,1.54-3.44.5-5.43a3.25,3.25,0,0,1,.05-3.31c.85-1.15-.13-1.77-.26-2.43.43-1.18.8-2.2,1.18-3.23-1-.93-.68-1.85,0-2.73a2.32,2.32,0,0,1-.35-2.92,2.38,2.38,0,0,0,.27-1.67,16.86,16.86,0,0,1,1.19-5.74l-.7-.75,1.31-1V4077l1-.41c.4-.93-.49-1-.41-1.6-.2-.55.73-.59.59-1.19a.94.94,0,0,0,.16-1.08c-1.41-2.81-1-5.67-.44-8.61a14.31,14.31,0,0,0,0-6.38c-1.35-5.05.23-8.5.7-13.39,0-.39-.45-1.91-.45-2.31-.86-.16-.51-1.24-1.18-1.7.29-1.35-.49-2.87.59-4.14-.18-.31-.59-.46-.56-1a8.22,8.22,0,0,0-.91-4.65,3.15,3.15,0,0,1-.2-2.53c1.07-2.19.5-4.24-.07-6.08,0-1.13,1.22-1.25,1.18-2.33.46-1-1-1.15-1.18-2a20.88,20.88,0,0,1,0-3c.14-1-.83-1.66-.67-2.73a4.46,4.46,0,0,0-1.26-4.37c.93-1.28-.17-2.37.08-3.55a3.49,3.49,0,0,0-1.07-3.34c-.55-2,1.06-3.66.5-5.5.55-.26,1-.09,1.18-.54s-.4-.77-.52-1.18c.66-.36.52-1,.52-1.56V3990L19,3988.4c.35-.81-.19-1.62.39-2.12.93-.82-.59-1.88.36-2.63a10.51,10.51,0,0,1,0-7.51,2.61,2.61,0,0,0-.12-1.7,11.75,11.75,0,0,1-1-6l-1.19-.8a20,20,0,0,0-.2-3.19c-1.35-5.51-2-8.78-1.64-12.44a1.82,1.82,0,0,0,0-.87c-.87-1.46-1-3.16-1.43-4.74A30.16,30.16,0,0,0,12,3941.9c-.25-.6-.72-.89-1-1.38-1.11-2.14-.63-4.74-2-6.82,1.18-2.09.11-4.39.63-6.55l1.09-1.08c0-1.93.05-3.91,0-5.87s1.4-3.38,1.88-5.22l-1.53-1.69c.94-.42.59-1.54,1.41-2,.15-2.89.14-5.71-1.6-8.24a1.84,1.84,0,0,1,.18-2.15,1.79,1.79,0,0,0,.2-1.93,3.56,3.56,0,0,1-.49-2.75c.13-1-.75-1.81-.59-2.71.28-1.7-.46-3.23-.77-4.77a11.37,11.37,0,0,0-.88-3.47,10.25,10.25,0,0,1-1.27-4.46c0-1.68-.59-3.42.42-5.13a2.49,2.49,0,0,0-.32-2.76c-.45-.52-.17-1.3-.13-2l1-1c.32-.77-.34-1.77.62-2.4.34-2.31,1.26-4.51,1.25-6.89a3,3,0,0,1,.38-1.93c.56-.82.16-1.74-.35-2.63s1.15-1.82.42-3c-.1-.16-.36-.27-.4-.43-.36-1.67-1-3.36-.93-5,.15-2.73.59-5.46.86-8.2.33-3.46-.63-7,.59-10.41a1.46,1.46,0,0,0,0-1.16c-1-1.06-.64-2.49-1.06-3.71s-.09-2.73-.09-4.11c.25-.89,1.25-1.4,1.18-2.47a11.51,11.51,0,0,0-.08-3c-.36-1.05,1.58-1.86.14-2.82,1.24-.85-.05-1.63-.11-2.44a25.89,25.89,0,0,1,1.38-9.52,5.59,5.59,0,0,0,.41-2.18,9.42,9.42,0,0,1,.81-4.41,5.33,5.33,0,0,0,0-3.83c-1.51-4.65-1.92-4-.37-9,.56-1.83,1.77-3.55,1.24-5.84l1.24-.59a3,3,0,0,1-.21-3.38,2.56,2.56,0,0,0,.17-2.24c-.76-1.35-.32-2.8-.6-4.14-1.73-.3-2.15-1.68-2.21-2.92a11.21,11.21,0,0,0-1-4.33,2.31,2.31,0,0,1-.22-1.1c.05-1.48-.93-2.41-1.78-3.4-.05-1.33.31-2.71-.84-4,1.09-.28.78-1.05.85-1.7s-.53-1.7-.34-2c.5-.77.26-1.51.32-2.25a18.74,18.74,0,0,0,0-2.37c-.1-1.82,1-3.51.62-5.36a2.56,2.56,0,0,0,.48-3c-.69-1.82-.4-3.62-.51-5.42a3.91,3.91,0,0,0-.11-1.13,16.14,16.14,0,0,1-1-6.07c.16-2.82-1-5.52-.59-8.34.06-.39-.37-.48-.41-.72-.26-1.69-1.24-3.05-2.09-4.91a25.61,25.61,0,0,1,1.78-4.27c.93-1.64-1.24-3.15,0-4.78-1-1.27.19-3.05-1-4.36-.22-.26-.06-1.05.15-1.65a10,10,0,0,0,.11-5.92c-.26-1.18-.59-2.31-.9-3.47,1.28-1.22.09-2.44,0-3.66a10.15,10.15,0,0,0,1.19-6.18,3.45,3.45,0,0,0,.87-2.57,6.84,6.84,0,0,1,1.06-2.76c.59-1.08.17-2.09.52-3.06.67-.59.77-1.46,1.18-2.19l-.59-.68c.1-.34.64-.44.49-1.22-1.43-1.47-1.54-3.77-2.37-5.92l1.23-1c0-1.18-.38-2.47.1-3.06.63-.75.07-1.82,1-2.31a3,3,0,0,1-.47-2.06c0-.89,0-1.78,0-2.67,0-.37-.63-.41-.4-1,0-.1.59-.12.24-.5-.5-.35-1.19.2-1.78-.65a36.43,36.43,0,0,0,2.37-9.3c-.9-.82-.24-2-.49-3.09l1.32-1c-.59-2.13.93-3.95.47-5.93l1.13-.46c.14-.38.18-.72-.23-.94-.3.23-.49.65-1.09.53l-.56-.46c-.77-.6,0-1.69-.47-2.15a2.6,2.6,0,0,1-.47-2.47c.09-.8-.72-1.4-.31-2,.62-.89-.37-1.68-.11-2.23,1.07-2.3-.13-4.14-.89-6.38,1,0,.65-1,.9-1.52a20.21,20.21,0,0,0,.95-3.75c-1.27-1.57-.29-3.4-.59-5.08-.11-.6,1-.79.55-1.53l-1.18-1.19c.28-2.11-.49-4.41.48-6.62l-1.1-1.1a1.38,1.38,0,0,0,.69-1.84,1.74,1.74,0,0,0-.1-.19c-.81-1.39-.37-2.82-.53-4.23-.2-1.7.52-3.48-.56-5.1a1.12,1.12,0,0,1,.11-1.09c.68-.56.51-1.28.43-1.9a5.91,5.91,0,0,1,1.23-4.15c-.15-.73-.59-1.22-.67-1.91-.17-1.08.69-2.06.16-3.12,1-.72,0-2,.84-2.82.5-.48.3-1.18.2-1.67-.14-.7-.77-1.29-.56-2.13.16-.64-.24-1.38.23-2s-.1-1.13.29-1.78a2,2,0,0,0-.45-2.3l1.12-1c-.21-.25-.59-.49-.56-.68.19-1.31-.41-2.65.38-4a2.54,2.54,0,0,0-.13-2.74,1.74,1.74,0,0,1-.17-1.61l1.13-.41c-.33-1.6.49-3.3-.54-4.79,1.31-1.58-.26-3.74,1-5.47.46-.64.07-1.9.07-2.73a4.56,4.56,0,0,1-1.19-2.64c0-.74.33-1.6-.53-2.15,1.12-.74.19-1.43,0-2.16a1.71,1.71,0,0,1,0-1.18c1.18-2.6,1-5.49,1.77-8.15a6.62,6.62,0,0,0,.45-3.49c-1.46-1.18-1.41-3-2.24-4.49-.45-.81.36-1.59.6-2.44-.73-.53-.71-1.48-1.28-2.15,1.4-1.66.31-3.08-.46-4.53a1.19,1.19,0,0,0,.44-1.62l-.11-.16a2.34,2.34,0,0,1-.23-2.42,19.72,19.72,0,0,0,0-6.77c-.33-2.64-1.78-5.27-.28-8,.47-.86-.2-1.82-.62-2.59.29-.5.75-.75.68-1.34s0-1.38,0-2.07.8-.82.62-1.54a1.66,1.66,0,0,1,.53-1.77c-.43-.41-.93-.87-.26-1.41s0-1.35.6-1.85c.45-.34-.68-1.11.27-1.44-1-.85-.48-2-.56-3s-.38-2.37.07-3.21c.59-1.11-.17-1.89-.19-2.81s.77-1.34.71-2.12a2,2,0,0,1-.38-2.61,3,3,0,0,0,.28-2.79c-.62-1.59-.17-3.35-1.15-4.64l.8-1a5.5,5.5,0,0,1-.81-1.69,19.23,19.23,0,0,1-.5-6.28,3.65,3.65,0,0,0-.63-2.1,10.74,10.74,0,0,0,.72-3.17,28.91,28.91,0,0,1,1-3.63l-.56-.59,1.78-1.77V3414c0-.36.66-.39.46-.83l-.45-.46a4.42,4.42,0,0,0,1.45-2.65c.36,0,.79.08.9-.47-.94-1.89-.59-3.91-.45-5.92,1-.56-.3-.85-.16-1.35s.76-1,.66-1.82a7.63,7.63,0,0,0-.59-1.55,5.05,5.05,0,0,1,0-2c.09-.67-.45-1-.59-1.54-.35-1.37-1-2.76-.59-4.15.3-1.18-.77-2-.6-3s1.19-1.67,1.19-2.76c0-.29-.07-.6.25-.79.71.13,1-.46,1.42-.84.35-.76-.28-1.73.59-2.44a1.43,1.43,0,0,0,.07-1.39c-1.15-1.47,0-3.41-1.12-4.89-.34-.45.11-1.07.52-1.48-1.19-2.52-1.24-3.3-1.19-6.15a12.29,12.29,0,0,0-.73-2.91c-.37-.14-.82,0-1.06-.59.41-.78.86-1.67,1.28-2.5-.17-.54-.83-.73-.59-1.39l.63-.71c-.88-.17-.7-.84-.65-1.4a14.93,14.93,0,0,1,1.13-3.38c.42-1.24-.5-2.7.52-3.94.2-.24-.07-.88.14-1.1,1.18-1.27.35-2.46-.13-3.68.9-.55,1.06-1.37.44-2-1.13-1.15.2-1.94.31-2.88.13-1.1-1.37-2-.48-2.93.74-.8.07-1.72.77-2.7l.84-.72c-.25-.37-.69-.53-.59-1.11,1.18-1.31,2.22-3.09,1.62-4.73a4.5,4.5,0,0,1,.11-3.42,10.72,10.72,0,0,0,.66-3.89,8.7,8.7,0,0,1,.43-3.65c.47-1.24.14-2.77,1.23-4a1.15,1.15,0,0,0-.31-1.57c-.32-.21-.17-.53-.19-.66l1.18-2.25a8.36,8.36,0,0,1-1.22-4.6,3.88,3.88,0,0,0-.41-2.37c.83-.72.23-1.67.41-2.49.49-2.15-.9-4.15-.45-6.86l1.35-.55c-1.46-.59-1.36-1.66-1.68-2.54-.54-1.5-.6-3.1-1-4.62,1-1.9.42-4,.59-5.84l-1.78-1.78c0-1.66.29-3.43-1.18-4.74l1.18-1.18c-.18-1.88.42-3.93-.59-5.83.65-1.26.59-1.23.21-2.27-.24-.68-.86-1.21-.81-2,.1-1.65-.2-3.33.32-4.95-.29,0-.6.12-1-.49.76-1.25-.59-2.45-.53-3.87.31-.59,1.1-.84,1.22-1.78-1.06-1.07-1.14-2.37-.66-3.94.59-1.94-1.4-3.69-.65-5.72-.94-.78-.06-2.05-.56-2.71-.81-1.09.56-1.89.06-2.81.86-1,.51-2.18.59-3.2.9-1.18,1.72-2.3.92-3.48-.24-.55.45-.49.05-.94l-.38-.38a1.22,1.22,0,0,0,.36-1.68l-1.05-.59h.66c-.28-3.17.59-5.83,2.93-7.73-.53-1.45-.53-1.45.06-2.69a4.61,4.61,0,0,1,0-4.83l-1-2a14.15,14.15,0,0,1,1.73-5.19c-.33-.44-.77-.59-.68-1.08l1.18-2.29c-1-1.78-.39-3.55-.62-5.1l1.35-1.24c-.59-1,.27-1.9.5-2.76l-.6-.73,1.11-1.11c-1.38-1.31,0-2.61.09-4.14-2-1.38-2.29-3.83-2.92-6-.5-1.68.16-3.63-.68-5.33a.62.62,0,0,1,0-.56c.85-.74.4-2,1.22-2.65-.27-.42-.44-.69-.59-.95l.5-.51c-.39-.4-.77-.81-1.36-1.45l1.41-.81c-.52-.85-1.25-.91-1.57-1.3-1.52-2.1-.19-4.62-1.1-6.71-1.08-2.45.66-4.66.2-7.11-1.63-.49-.67-2.79-2.3-3.27v-1.9c-1.09-.7-1.25-2.15-2.37-2.91.17-1-.38-2,.52-3a1.7,1.7,0,0,0,0-1.69c-1-1-.42-2.32-1-3.46-.52-1-.1-2.49-.1-3.72,1-.9,1-2.23,1.5-3.3s.2-2.55.8-3.8c.51-1.06-.48-2.52.63-3.56-.23-.29-.65-.47-.5-1.31l.88-.52c.5-1.41-.09-2.48.72-3.49a2.34,2.34,0,0,0,0-2.24c-.76-1-.46-2-.51-3.06-.06-1.38,0-2.77,0-4.15a4.57,4.57,0,0,1-1.18-3.65c.06-1.78,0-3.55,0-5.25l-1.1-1.1.69-1.12c-1.42-.24-.41-1.44-.95-2.11-.34-.18-.81,0-.9-.2-.19-2.06-.59-3.76-1.66-4.84-.86-3,.75-5.41.37-8s.94-5.09,1.18-7.7H5.46v605.55c0,8.58,0,17.17,0,25.75a17.25,17.25,0,0,0,.11,3.28v502H17.34C15.6,4205.64,15.67,4202.69,14.45,4200.19Z" transform="translate(-5.46 0.01)"/><path class="cls-1" d="M14.45,5112.69c1.06-1,.21-2.33.53-3.45-.27-.37-.72-.52-.62-1.11,1.18-1.18.94-3,1.61-4.41-.05-.24-.59-.26-.2-.73.07-.07.21-.2.68-.59l-1.6-.83c1.42-1.25-.08-3.07,1.19-4.15-.87-.59-.18-1.88-1.11-2.43.23-.3.59-.46.59-.95-.08-2.18-1.3-4-1.77-6,1.33-1.57-.23-3.73,1.38-5.33-1.83-1.09.07-3.19-1.4-4.43a4.77,4.77,0,0,0-.68-4.54c-1-1.5.31-3.34-1.19-4.51l.73-1c-.08-.73-1.13-1.36-.57-2.08a3.53,3.53,0,0,0,.53-2.74,3.51,3.51,0,0,1,.87-2.31c.64-.89,1.58-1.55.45-2.68,1-1.52-.6-3-.13-4.51a1.34,1.34,0,0,0-.34-1.33c-.53-.64-.2-1.44-.11-2.37l1.42-.92-1.28-.78c-.72-1.35.49-1.77.34-2.54-1-1.36-.71-2.68,0-4.07-.15-.19-.47-.4-.48-.62,0-2.64,0-5.27,0-8.29l1.19-.7c-.6-1.27-1.19-2.27-.32-3.4.59-.75-.28-2,.83-2.63.93-.59.35-2.09,1.48-2.63.08-1.77,1.54-3.43.49-5.42a3.27,3.27,0,0,1,.06-3.31c.85-1.14-.13-1.78-.26-2.42.43-1.19.8-2.21,1.18-3.24-1-.93-.69-1.85,0-2.73a2.33,2.33,0,0,1-.36-2.93,2.34,2.34,0,0,0,.27-1.66,16.91,16.91,0,0,1,1.19-5.74l-.7-.75,1.32-1v-4.84l1-.41c.39-.93-.5-1-.42-1.6-.2-.55.73-.59.59-1.19a.93.93,0,0,0,.16-1.08c-1.41-2.81-1-5.67-.44-8.61a14.31,14.31,0,0,0,0-6.38c-1.35-5.05.24-8.5.7-13.39,0-.4-.45-1.91-.45-2.31-.85-.15-.5-1.24-1.18-1.7.3-1.35-.49-2.87.59-4.14-.18-.31-.59-.46-.55-1a8.38,8.38,0,0,0-.91-4.64,3.11,3.11,0,0,1-.21-2.53c1.07-2.19.51-4.24-.07-6.08,0-1.13,1.22-1.25,1.19-2.33.45-1-1-1.15-1.19-2a20.89,20.89,0,0,1,0-3c.14-1-.83-1.66-.67-2.72.24-1.61.1-3.24-1.25-4.37.93-1.29-.18-2.37.07-3.56a3.49,3.49,0,0,0-1.07-3.34c-.54-2,1.07-3.66.5-5.49.55-.26,1-.09,1.18-.54s-.4-.78-.52-1.19c.66-.35.52-1,.53-1.55v-1.94l1.63-1.62c.34-.8-.2-1.61.38-2.12.93-.81-.6-1.87.36-2.63a10.51,10.51,0,0,1,0-7.51,2.58,2.58,0,0,0-.12-1.69,11.94,11.94,0,0,1-1-6l-1.18-.79a18.86,18.86,0,0,0-.21-3.19c-1.35-5.52-2-8.78-1.64-12.44a1.74,1.74,0,0,0,0-.88c-.86-1.45-1-3.16-1.43-4.73a29.27,29.27,0,0,0-2-4.5c-.26-.6-.72-.89-1-1.37-1.12-2.15-.64-4.74-2-6.83,1.19-2.09.12-4.39.64-6.55.34-.35.69-.7,1.08-1.08,0-1.93,0-3.91,0-5.87s1.42-3.38,1.89-5.22l-1.53-1.69c.94-.42.59-1.54,1.4-2,.16-2.89.15-5.7-1.6-8.23a1.85,1.85,0,0,1,.18-2.16,1.73,1.73,0,0,0,.2-1.92,3.58,3.58,0,0,1-.49-2.76c.14-1-.74-1.78-.59-2.71.28-1.69-.46-3.23-.76-4.77a11.11,11.11,0,0,0-.89-3.47,10.27,10.27,0,0,1-1.26-4.46c-.05-1.68-.6-3.42.42-5.14a2.5,2.5,0,0,0-.32-2.75c-.46-.51-.17-1.3-.14-2l1-1c.32-.77-.34-1.77.63-2.4.33-2.31,1.26-4.51,1.25-6.89a2.9,2.9,0,0,1,.38-1.93c.55-.82.16-1.74-.35-2.63s1.14-1.82.42-3c-.11-.16-.37-.26-.41-.42-.35-1.67-1-3.36-.93-5,.16-2.73.6-5.46.87-8.2.32-3.46-.64-7,.59-10.41.13-.35.19-.94,0-1.15-1-1.07-.64-2.5-1.06-3.72s-.09-2.73-.09-4.11c.25-.89,1.25-1.4,1.18-2.47s.24-2.06-.08-3,1.58-1.85.14-2.82c1.24-.85-.05-1.63-.11-2.44a26.31,26.31,0,0,1,1.38-9.52,5.25,5.25,0,0,0,.41-2.18,9.42,9.42,0,0,1,.81-4.41,5.33,5.33,0,0,0,0-3.83c-1.51-4.64-1.92-4-.37-9,.56-1.83,1.78-3.55,1.24-5.84l1.24-.59a3,3,0,0,1-.21-3.38,2.56,2.56,0,0,0,.17-2.24c-.75-1.35-.32-2.8-.6-4.14-1.73-.31-2.15-1.69-2.21-2.92a11.08,11.08,0,0,0-1-4.34,2.15,2.15,0,0,1-.21-1.09c0-1.48-.93-2.41-1.78-3.41,0-1.32.31-2.7-.84-4,1.09-.28.77-1.05.85-1.7s-.54-1.71-.35-2c.51-.77.26-1.51.33-2.25a18.58,18.58,0,0,0,0-2.36c-.1-1.83,1-3.52.63-5.38a2.57,2.57,0,0,0,.48-3c-.7-1.81-.4-3.6-.51-5.41a4.42,4.42,0,0,0-.12-1.14,16.27,16.27,0,0,1-1.05-6.07c.17-2.81-1-5.51-.59-8.33.06-.38-.37-.48-.41-.72-.26-1.69-1.24-3.06-2.09-4.91a25.93,25.93,0,0,1,1.78-4.26c.94-1.65-1.24-3.16,0-4.79-1-1.28.19-3.05-1-4.36-.23-.26-.07-1.05.15-1.65a10.2,10.2,0,0,0,.11-5.92c-.27-1.18-.59-2.32-.9-3.47,1.27-1.22.08-2.44,0-3.65a10.25,10.25,0,0,0,1.18-6.19,3.41,3.41,0,0,0,.87-2.57,6.3,6.3,0,0,1,1.06-2.76c.6-1.08.18-2.09.52-3.06.67-.6.77-1.45,1.18-2.2l-.59-.67c.11-.34.65-.43.49-1.22-1.42-1.47-1.54-3.77-2.37-5.92l1.24-1c0-1.19-.4-2.48.09-3.07.63-.75.07-1.81.95-2.31a3,3,0,0,1-.47-2.07c0-.89,0-1.77,0-2.66,0-.37-.63-.42-.41-1,0-.1.59-.12.24-.49s-1.19.19-1.78-.66a36.36,36.36,0,0,0,2.37-9.29c-.9-.83-.24-2-.48-3.11l1.31-1c-.59-2.12.93-3.95.47-5.92l1.13-.47c.14-.36.18-.71-.23-.93-.3.23-.49.64-1.09.53-.13-.11-.34-.3-.56-.47-.77-.59,0-1.68-.47-2.15a2.62,2.62,0,0,1-.47-2.47c.09-.8-.72-1.39-.31-2,.62-.89-.36-1.69-.11-2.23,1.07-2.29-.13-4.18-.89-6.38,1,0,.66-1,.91-1.52a21,21,0,0,0,.94-3.75c-1.26-1.57-.29-3.4-.59-5.09-.12-.59,1-.78.55-1.52l-1.19-1.19c.28-2.11-.48-4.41.48-6.62L9,4495.11a1.4,1.4,0,0,0,.69-1.85,1.62,1.62,0,0,0-.1-.18c-.81-1.39-.37-2.83-.54-4.23-.19-1.69.52-3.48-.56-5.1a1.14,1.14,0,0,1,.11-1.09c.69-.56.51-1.28.43-1.9a6,6,0,0,1,1.23-4.15c-.15-.73-.59-1.21-.67-1.91-.16-1.09.69-2.06.16-3.12,1-.72,0-2,.85-2.82.49-.48.3-1.19.2-1.67-.15-.71-.78-1.29-.56-2.13.16-.64-.24-1.38.23-2s-.1-1.12.29-1.77a2,2,0,0,0-.45-2.31l1.12-1c-.22-.25-.6-.49-.56-.68.19-1.31-.41-2.65.38-4a2.54,2.54,0,0,0-.13-2.74,1.8,1.8,0,0,1-.17-1.61l1.12-.41c-.33-1.6.49-3.3-.53-4.78,1.31-1.59-.26-3.75,1-5.48.47-.64.08-1.91.08-2.72a4.56,4.56,0,0,1-1.19-2.66c0-.74.33-1.6-.53-2.14,1.12-.75.2-1.43,0-2.16a1.74,1.74,0,0,1,0-1.19c1.18-2.59,1-5.47,1.77-8.14a6.63,6.63,0,0,0,.46-3.49c-1.47-1.19-1.42-3.05-2.24-4.49-.46-.81.35-1.59.59-2.45-.73-.52-.7-1.47-1.27-2.13,1.4-1.67.31-3.09-.46-4.53a1.18,1.18,0,0,0,.43-1.62.91.91,0,0,0-.11-.16,2.43,2.43,0,0,1-.23-2.44,19.42,19.42,0,0,0,.05-6.76c-.32-2.65-1.77-5.27-.27-8,.47-.86-.21-1.82-.63-2.59.29-.5.76-.74.69-1.34s0-1.38,0-2.07.8-.82.62-1.53a1.66,1.66,0,0,1,.53-1.81c-.44-.41-.94-.87-.25-1.41s-.06-1.35.59-1.85c.45-.35-.69-1.11.27-1.45-1.05-.84-.49-2-.56-3s-.38-2.37.07-3.21c.59-1.11-.18-1.9-.19-2.81s.76-1.34.7-2.11a2,2,0,0,1-.38-2.62,3,3,0,0,0,.29-2.79c-.62-1.59-.17-3.35-1.14-4.64l.79-1a5.58,5.58,0,0,1-.82-1.68,19.88,19.88,0,0,1-.5-6.29,3.58,3.58,0,0,0-.63-2.1,10.77,10.77,0,0,0,.73-3.16,28.58,28.58,0,0,1,1.05-3.64l-.56-.62,1.77-1.78v-1.07c0-.35.67-.39.46-.83l-.45-.45a4.47,4.47,0,0,0,1.45-2.66c.37,0,.8.08.9-.46-.94-1.9-.59-3.91-.45-5.93,1-.55-.3-.84-.16-1.35s.76-1,.66-1.82a7.77,7.77,0,0,0-.59-1.54,4.72,4.72,0,0,1,0-2.05c.08-.67-.46-1-.59-1.54-.35-1.37-1-2.76-.59-4.18.3-1.19-.77-2-.6-3s1.19-1.67,1.19-2.77c0-.28-.07-.59.25-.78.71.12,1-.47,1.42-.84.35-.77-.27-1.73.6-2.45a1.41,1.41,0,0,0,.06-1.38c-1.14-1.47,0-3.41-1.12-4.9-.34-.44.11-1.06.52-1.48-1.18-2.51-1.23-3.29-1.18-6.14a11.86,11.86,0,0,0-.74-2.91c-.36-.14-.82,0-1-.59l1.27-2.51c-.18-.54-.83-.73-.59-1.4l.63-.7c-.87-.17-.7-.84-.65-1.4a14.72,14.72,0,0,1,1.14-3.37c.42-1.25-.51-2.71.52-3.95.19-.24-.07-.89.13-1.1,1.18-1.27.35-2.46-.13-3.68.9-.55,1.06-1.37.44-2-1.12-1.18.2-1.94.32-2.88.13-1.1-1.38-2-.48-2.93.74-.8.06-1.72.77-2.7l.83-.72c-.24-.36-.69-.53-.59-1.1,1.18-1.32,2.22-3.1,1.61-4.74a4.55,4.55,0,0,1,.11-3.42,10.52,10.52,0,0,0,.67-3.89,8.5,8.5,0,0,1,.43-3.64c.46-1.25.14-2.78,1.22-4a1.13,1.13,0,0,0-.31-1.56c-.32-.22-.16-.53-.18-.66l1.18-2.25a8.42,8.42,0,0,1-1.22-4.61,4,4,0,0,0-.41-2.37c.82-.71.23-1.67.42-2.49.48-2.14-.91-4.15-.46-6.86L20,4205c-1.45-.59-1.36-1.67-1.68-2.54-.54-1.5-.59-3.1-1-4.62,1-1.91.43-4,.6-5.84l-1.78-1.78c0-1.66.29-3.43-1.19-4.73l1.19-1.19c-.18-1.88.42-3.93-.59-5.83.64-1.26.59-1.23.21-2.26-.25-.69-.86-1.18-.82-2,.1-1.65-.19-3.32.32-4.95-.29,0-.6.12-1-.49.77-1.25-.59-2.45-.53-3.86.31-.6,1.1-.85,1.23-1.78-1.07-1.08-1.15-2.37-.67-3.95.59-1.94-1.4-3.69-.65-5.72-.93-.78-.06-2-.56-2.71-.81-1.09.56-1.89.07-2.81.85-1,.5-2.18.59-3.2.9-1.18,1.71-2.3.92-3.47-.24-.56.45-.5,0-.95l-.39-.38c.35-.33.79-.59.37-1.68l-1.05-.59h.66c-.28-3.17.59-5.83,3-7.73-.54-1.45-.54-1.45.05-2.69a4.61,4.61,0,0,1,0-4.83c-.42-.82-.84-1.62-1-2a13.85,13.85,0,0,1,1.73-5.19c-.34-.44-.77-.59-.69-1.08l1.18-2.28c-1-1.78-.38-3.56-.62-5.11l1.36-1.24c-.59-1,.26-1.9.49-2.76l-.59-.72,1.11-1.12c-1.39-1.31,0-2.6.09-4.14-2-1.38-2.3-3.83-2.93-6-.49-1.68.17-3.62-.68-5.33a.65.65,0,0,1,0-.56c.86-.74.41-2,1.23-2.66l-.59-.95.5-.5-1.36-1.45,1.41-.81c-.52-.85-1.25-.91-1.57-1.31-1.52-2.1-.19-4.62-1.1-6.71-1.07-2.45.67-4.66.21-7.1-1.64-.49-.68-2.79-2.31-3.28v-1.9c-1.08-.7-1.25-2.14-2.37-2.9.17-1-.37-2,.53-3a1.71,1.71,0,0,0,0-1.67c-1-1-.43-2.34-1-3.47s-.11-2.49-.11-3.72c1-.91,1-2.23,1.5-3.3s.2-2.55.81-3.81c.51-1.05-.49-2.52.63-3.55-.23-.29-.66-.47-.5-1.32l.87-.51c.51-1.41-.08-2.49.73-3.49a2.39,2.39,0,0,0,0-2.25c-.77-1-.46-2-.51-3.06-.06-1.38,0-2.76,0-4.14a4.56,4.56,0,0,1-1.19-3.66c.08-1.77,0-3.55,0-5.24l-1.1-1.1.69-1.13c-1.42-.23-.41-1.44-1-2.11-.34-.17-.81,0-.9-.2-.19-2.05-.59-3.75-1.66-4.84-.86-2.93.75-5.4.37-8s.94-5.1,1.18-7.7H5.53v605.63c0,8.58,0,17.17,0,25.75a16.54,16.54,0,0,0,.12,3.28v502H17.41C15.64,5118.14,15.67,5115.19,14.45,5112.69Z" transform="translate(-5.46 0.01)"/><path class="cls-1" d="M14.45,6132.09c1.06-1,.21-2.34.53-3.45-.27-.37-.72-.52-.62-1.11,1.18-1.18.94-3,1.61-4.41-.05-.25-.59-.26-.2-.74l.68-.59-1.6-.83c1.42-1.25-.08-3.06,1.19-4.15-.87-.59-.18-1.88-1.11-2.44.23-.29.59-.46.59-.94-.08-2.18-1.3-4-1.77-6,1.33-1.57-.23-3.73,1.38-5.33-1.83-1.09.07-3.21-1.4-4.44a4.75,4.75,0,0,0-.68-4.53c-1-1.52.31-3.36-1.19-4.52l.73-1c-.08-.73-1.13-1.36-.57-2.08a3.55,3.55,0,0,0,.53-2.74,3.46,3.46,0,0,1,.87-2.3c.64-.9,1.58-1.56.45-2.69,1-1.52-.6-3-.13-4.5a1.35,1.35,0,0,0-.34-1.34c-.53-.65-.2-1.44-.11-2.37l1.42-.92-1.28-.78c-.72-1.36.49-1.78.34-2.55-1-1.36-.71-2.67,0-4.06-.15-.19-.47-.41-.48-.63,0-2.63,0-5.27,0-8.29l1.19-.7c-.6-1.27-1.19-2.27-.32-3.39.59-.76-.28-1.95.83-2.63.93-.6.35-2.1,1.48-2.63.08-1.78,1.54-3.43.49-5.42a3.28,3.28,0,0,1,.06-3.32c.85-1.14-.13-1.77-.26-2.42.43-1.18.8-2.21,1.18-3.24-1-.93-.69-1.85,0-2.72a2.33,2.33,0,0,1-.36-2.93,2.36,2.36,0,0,0,.27-1.66,17,17,0,0,1,1.19-5.75l-.7-.75,1.32-1v-4.84l1-.41c.39-.94-.5-1-.42-1.61-.2-.55.73-.59.59-1.18a.93.93,0,0,0,.16-1.08c-1.41-2.82-1-5.66-.44-8.61a14.31,14.31,0,0,0,0-6.38c-1.35-5.05.24-8.5.7-13.39,0-.39-.45-1.91-.45-2.3-.85-.16-.5-1.25-1.18-1.7.3-1.36-.49-2.88.59-4.15-.18-.31-.59-.46-.55-.95a8.43,8.43,0,0,0-.91-4.65,3.09,3.09,0,0,1-.21-2.52c1.07-2.19.51-4.24-.07-6.09,0-1.13,1.22-1.25,1.19-2.32.45-1-1-1.15-1.19-2a20.91,20.91,0,0,1,0-3c.14-1-.83-1.65-.67-2.73.24-1.61.1-3.24-1.25-4.37.93-1.28-.18-2.37.07-3.55a3.49,3.49,0,0,0-1.07-3.34c-.54-2,1.07-3.67.5-5.5.55-.26,1-.08,1.18-.54s-.4-.78-.52-1.18c.66-.36.52-1,.53-1.56v-1.94L19,5920.3c.34-.8-.2-1.62.38-2.12.93-.82-.6-1.88.36-2.63a10.51,10.51,0,0,1,0-7.51,2.61,2.61,0,0,0-.12-1.7,11.88,11.88,0,0,1-1-6l-1.18-.8a18.93,18.93,0,0,0-.21-3.19c-1.35-5.51-2-8.78-1.64-12.43a1.74,1.74,0,0,0,0-.88,18,18,0,0,1-1.43-4.74,30,30,0,0,0-2-4.49c-.26-.59-.72-.88-1-1.38-1.12-2.13-.64-4.73-2-6.82,1.19-2.09.12-4.4.64-6.55l1.08-1.09c0-1.92,0-3.89,0-5.86s1.42-3.39,1.89-5.22l-1.53-1.69c.94-.42.59-1.54,1.4-2,.16-2.89.15-5.71-1.6-8.23a1.87,1.87,0,0,1,.18-2.17,1.71,1.71,0,0,0,.2-1.91,3.58,3.58,0,0,1-.49-2.76c.14-1-.74-1.81-.59-2.72.28-1.68-.46-3.22-.76-4.76a11.11,11.11,0,0,0-.89-3.47,10.27,10.27,0,0,1-1.26-4.46c-.05-1.67-.6-3.42.42-5.14a2.5,2.5,0,0,0-.32-2.75c-.46-.52-.17-1.29-.14-2l1-1c.32-.77-.34-1.78.63-2.4.33-2.31,1.26-4.51,1.25-6.89a2.9,2.9,0,0,1,.38-1.93c.55-.81.16-1.74-.35-2.64s1.14-1.81.42-3c-.11-.16-.37-.26-.41-.42-.35-1.67-1-3.37-.93-5,.16-2.73.6-5.46.87-8.2.32-3.46-.64-7,.59-10.42a1.44,1.44,0,0,0,0-1.15c-1-1.07-.64-2.49-1.06-3.71s-.09-2.73-.09-4.11c.25-.9,1.25-1.41,1.18-2.48s.24-2.05-.08-3,1.58-1.85.14-2.82c1.24-.85-.05-1.63-.11-2.43a26.36,26.36,0,0,1,1.38-9.53,5.24,5.24,0,0,0,.41-2.17,9.46,9.46,0,0,1,.81-4.42,5.3,5.3,0,0,0,0-3.82c-1.51-4.65-1.92-4-.37-9,.56-1.83,1.78-3.56,1.24-5.84l1.24-.6a3,3,0,0,1-.21-3.38,2.54,2.54,0,0,0,.17-2.23c-.75-1.36-.32-2.81-.6-4.14-1.73-.31-2.15-1.69-2.21-2.92a11,11,0,0,0-1-4.33,2.19,2.19,0,0,1-.21-1.1c0-1.48-.94-2.41-1.78-3.41,0-1.32.3-2.71-.84-4,1.09-.28.77-1.05.85-1.71s-.54-1.7-.35-2c.51-.78.26-1.51.33-2.25a18.74,18.74,0,0,0,0-2.37c-.1-1.82,1-3.52.63-5.37a2.57,2.57,0,0,0,.48-3c-.7-1.78-.4-3.61-.51-5.41a4.42,4.42,0,0,0-.12-1.14A16.27,16.27,0,0,1,9.11,5651c.17-2.81-1-5.52-.59-8.33.06-.39-.37-.48-.41-.73-.26-1.68-1.24-3.05-2.09-4.91a26.32,26.32,0,0,1,1.78-4.26c.93-1.64-1.24-3.16,0-4.78-1-1.28.19-3.05-1-4.36-.23-.27-.07-1.06.15-1.66a10.2,10.2,0,0,0,.11-5.92c-.27-1.18-.59-2.31-.9-3.47,1.27-1.22.08-2.43,0-3.65a10.23,10.23,0,0,0,1.18-6.18,3.43,3.43,0,0,0,.87-2.57,6.3,6.3,0,0,1,1.06-2.76c.6-1.08.18-2.09.52-3.06.67-.6.77-1.46,1.18-2.2l-.59-.68c.11-.33.65-.43.49-1.21-1.42-1.48-1.54-3.77-2.37-5.92l1.24-1c0-1.18-.4-2.48.09-3.06.63-.76.07-1.82.95-2.31a3,3,0,0,1-.47-2.07c0-.89,0-1.78,0-2.66,0-.38-.63-.42-.41-1,0-.1.59-.11.24-.49s-1.19.2-1.78-.65a36.43,36.43,0,0,0,2.37-9.3c-.9-.82-.24-2-.49-3.1l1.32-1c-.59-2.12.93-3.95.47-5.93l1.13-.46c.14-.38.18-.72-.23-.94-.3.23-.49.64-1.09.52l-.56-.46c-.77-.59,0-1.68-.47-2.15a2.6,2.6,0,0,1-.47-2.46c.09-.8-.72-1.39-.31-2,.62-.88-.37-1.67-.11-2.22,1.07-2.29-.13-4.15-.89-6.38,1,0,.65-1,.91-1.52a21,21,0,0,0,.94-3.75c-1.26-1.57-.29-3.4-.59-5.08-.12-.59,1-.79.55-1.53l-1.19-1.18c.28-2.12-.48-4.42.48-6.63-.35-.34-.7-.69-1.09-1.1a1.41,1.41,0,0,0,.68-1.87l-.09-.16c-.81-1.4-.38-2.83-.54-4.23-.2-1.7.52-3.48-.56-5.11a1.13,1.13,0,0,1,.11-1.08c.69-.56.51-1.28.43-1.9a6,6,0,0,1,1.23-4.15c-.15-.72-.59-1.21-.67-1.91-.16-1.08.69-2.06.16-3.11,1-.72,0-2,.85-2.83.49-.48.3-1.15.2-1.66-.15-.71-.78-1.29-.57-2.14.16-.64-.23-1.37.24-2s-.1-1.13.29-1.78a2,2,0,0,0-.45-2.3l1.12-1c-.22-.24-.6-.49-.56-.68.19-1.32-.42-2.65.38-4a2.53,2.53,0,0,0-.14-2.73,1.79,1.79,0,0,1-.16-1.62l1.12-.41c-.33-1.6.49-3.3-.54-4.78,1.32-1.6-.25-3.75,1-5.48.46-.64.08-1.91.08-2.73a4.53,4.53,0,0,1-1.19-2.65c0-.74.33-1.6-.53-2.14,1.12-.74.2-1.43,0-2.16a1.83,1.83,0,0,1,0-1.18c1.19-2.59,1-5.48,1.78-8.15a6.59,6.59,0,0,0,.46-3.48c-1.47-1.19-1.42-3.06-2.24-4.5-.46-.8.35-1.59.59-2.44-.73-.52-.7-1.48-1.27-2.14,1.4-1.67.31-3.09-.46-4.53a1.19,1.19,0,0,0,.43-1.62l-.11-.16a2.41,2.41,0,0,1-.23-2.43,19.47,19.47,0,0,0,.05-6.77c-.32-2.64-1.77-5.27-.27-8,.47-.87-.21-1.82-.63-2.59.29-.51.76-.75.68-1.34s0-1.38,0-2.08.79-.82.62-1.53a1.67,1.67,0,0,1,.53-1.81c-.44-.4-.94-.87-.25-1.41s-.06-1.35.59-1.84c.45-.35-.69-1.12.27-1.45-1.05-.84-.49-2-.56-3s-.38-2.37.07-3.21c.59-1.1-.18-1.89-.19-2.8s.76-1.35.7-2.12a2,2,0,0,1-.38-2.62,3,3,0,0,0,.29-2.79c-.62-1.58-.17-3.34-1.15-4.63l.8-1a5.75,5.75,0,0,1-.82-1.69,19.82,19.82,0,0,1-.5-6.28,3.61,3.61,0,0,0-.63-2.11,10.25,10.25,0,0,0,.66-3.19,28,28,0,0,1,1-3.63l-.56-.6c.56-.59,1.12-1.12,1.78-1.77v-1.07c0-.36.66-.4.46-.84l-.46-.45a4.37,4.37,0,0,0,1.45-2.66c.37,0,.8.08.91-.47-.95-1.9-.59-3.9-.46-5.92,1-.55-.29-.84-.15-1.34s.76-1,.66-1.83a7.23,7.23,0,0,0-.6-1.54,5.11,5.11,0,0,1,0-2.06c.09-.66-.45-1-.59-1.54-.34-1.36-.95-2.75-.59-4.18.31-1.18-.77-2-.59-3s1.18-1.67,1.18-2.77c0-.28-.06-.59.25-.78.71.13,1-.47,1.42-.84.35-.77-.27-1.73.59-2.45a1.39,1.39,0,0,0,.07-1.38c-1.14-1.47,0-3.41-1.11-4.89-.35-.45.1-1.07.52-1.48-1.19-2.52-1.25-3.3-1.19-6.15a12.29,12.29,0,0,0-.73-2.91c-.36-.14-.82,0-1.05-.59l1.27-2.51c-.17-.54-.83-.73-.59-1.39l.63-.71c-.87-.17-.69-.84-.65-1.41a15.94,15.94,0,0,1,1.14-3.37c.43-1.24-.5-2.7.52-3.94.2-.24-.07-.88.13-1.1,1.19-1.27.36-2.46-.13-3.68.91-.55,1.06-1.37.45-2-1.13-1.15.2-1.94.31-2.88.13-1.1-1.37-2-.48-2.92.75-.8.06-1.73.78-2.71.11-.11.48-.43.82-.72-.24-.36-.68-.53-.59-1.1,1.19-1.32,2.22-3.11,1.62-4.74a4.55,4.55,0,0,1,.11-3.42,10.51,10.51,0,0,0,.66-3.89,8.72,8.72,0,0,1,.43-3.65c.47-1.25.15-2.77,1.23-3.95a1.15,1.15,0,0,0-.31-1.57c-.32-.21-.17-.52-.19-.65l1.18-2.26a8.37,8.37,0,0,1-1.22-4.61,3.86,3.86,0,0,0-.41-2.36c.83-.72.23-1.67.41-2.5.49-2.14-.9-4.14-.45-6.85l1.35-.54c-1.46-.6-1.36-1.67-1.68-2.54-.54-1.51-.6-3.11-1-4.63,1-1.91.42-3.95.59-5.84l-1.78-1.78c0-1.66.3-3.43-1.18-4.73l1.18-1.19c-.17-1.87.42-3.92-.59-5.82.64-1.27.59-1.24.21-2.27-.24-.68-.86-1.18-.81-2,.1-1.66-.2-3.33.31-4.95-.28-.05-.59.12-1-.5.76-1.25-.6-2.44-.54-3.86.32-.59,1.1-.84,1.23-1.78a3.6,3.6,0,0,1-.66-3.94c.59-2-1.41-3.69-.66-5.72-.93-.79-.06-2.05-.55-2.72-.82-1.09.55-1.88.06-2.81.86-1,.51-2.18.59-3.19.9-1.19,1.71-2.3.92-3.48-.24-.55.45-.49,0-.94l-.39-.38a1.22,1.22,0,0,0,.37-1.68l-1-.59h.66c-.28-3.17.59-5.83,3-7.74-.54-1.45-.54-1.45,0-2.68a4.68,4.68,0,0,1,0-4.84l-1-2a14,14,0,0,1,1.73-5.19c-.34-.44-.77-.6-.69-1.08l1.19-2.29c-1-1.78-.39-3.56-.62-5.11l1.35-1.23c-.59-1,.26-1.91.49-2.76l-.59-.73,1.11-1.11c-1.39-1.31,0-2.61.09-4.15-2-1.37-2.29-3.83-2.93-6-.49-1.68.17-3.63-.67-5.36a.62.62,0,0,1,0-.56c.86-.74.41-2,1.23-2.65l-.59-1,.5-.5-1.36-1.45,1.41-.81c-.51-.85-1.25-.91-1.57-1.31-1.52-2.1-.19-4.61-1.1-6.7-1.07-2.46.67-4.66.2-7.11-1.63-.49-.67-2.79-2.3-3.27v-1.9c-1.08-.7-1.25-2.15-2.37-2.91.17-1-.37-2,.53-3a1.68,1.68,0,0,0,0-1.68c-1-1-.42-2.33-1-3.46s-.1-2.49-.1-3.73c1-.9,1-2.22,1.5-3.29s.2-2.55.81-3.81c.5-1.06-.5-2.51.62-3.55-.23-.3-.65-.47-.5-1.31l.88-.52c.5-1.41-.09-2.49.72-3.49a2.36,2.36,0,0,0,0-2.25c-.76-1-.46-2-.51-3.06-.06-1.37,0-2.76,0-4.14a4.59,4.59,0,0,1-1.18-3.66c.07-1.77,0-3.55,0-5.24l-1.11-1.11.69-1.12c-1.42-.23-.41-1.45-1-2.12-.34-.17-.81,0-.89-.2-.2-2.05-.6-3.75-1.67-4.83-.86-3,.75-5.41.37-8s1-5.1,1.18-7.7H5.46V5609c0,8.59,0,17.18,0,25.76a17.25,17.25,0,0,0,.11,3.28V6140H17.33C15.64,6137.54,15.67,6134.59,14.45,6132.09Z" transform="translate(-5.46 0.01)"/><path class="cls-1" d="M14.45,7164.72c1.06-1,.21-2.34.53-3.46-.27-.36-.72-.51-.62-1.1,1.18-1.19.94-3,1.6-4.42,0-.24-.59-.26-.19-.72l.68-.6-1.6-.83c1.42-1.25-.09-3.06,1.19-4.15-.87-.59-.18-1.88-1.11-2.44.23-.29.59-.45.59-.94-.08-2.18-1.3-4-1.77-6,1.33-1.57-.23-3.73,1.37-5.33-1.82-1.09.08-3.2-1.39-4.43a4.8,4.8,0,0,0-.68-4.54c-1-1.5.31-3.35-1.19-4.5l.73-1.05c-.08-.73-1.13-1.36-.57-2.08a3.55,3.55,0,0,0,.53-2.74,3.51,3.51,0,0,1,.87-2.31c.64-.89,1.58-1.55.45-2.68,1-1.52-.6-3-.13-4.51a1.36,1.36,0,0,0-.34-1.33c-.54-.64-.2-1.44-.11-2.37l1.42-.92-1.28-.78c-.73-1.36.49-1.78.34-2.55-1-1.35-.72-2.68,0-4.06-.15-.19-.47-.41-.48-.63,0-2.63,0-5.27,0-8.29l1.18-.69c-.59-1.28-1.18-2.28-.31-3.4.59-.76-.28-2,.82-2.63.94-.59.35-2.1,1.48-2.63.09-1.81,1.54-3.43.5-5.42a3.27,3.27,0,0,1,.06-3.31c.85-1.15-.14-1.78-.27-2.43l1.19-3.24c-1-.93-.69-1.85,0-2.73a2.32,2.32,0,0,1-.35-2.92,2.43,2.43,0,0,0,.27-1.67,17.14,17.14,0,0,1,1.18-5.74l-.69-.75,1.31-1v-4.84l1-.41c.39-.93-.49-1-.41-1.61-.21-.55.72-.59.59-1.18a.94.94,0,0,0,.15-1.09c-1.4-2.81-1-5.66-.43-8.61a14.27,14.27,0,0,0,0-6.37c-1.35-5.06.22-8.51.7-13.39,0-.4-.45-1.92-.45-2.31-.86-.16-.5-1.25-1.19-1.7.31-1.35-.49-2.88.6-4.15-.19-.31-.6-.46-.56-.95a8.33,8.33,0,0,0-.91-4.65,3.08,3.08,0,0,1-.2-2.52c1.06-2.19.51-4.25-.07-6.08,0-1.14,1.22-1.26,1.18-2.33.46-1-1-1.16-1.18-2a20.88,20.88,0,0,1,0-3c.14-1-.83-1.66-.67-2.72a4.48,4.48,0,0,0-1.26-4.38c.93-1.28-.17-2.36.08-3.55a3.49,3.49,0,0,0-1.07-3.34c-.55-2,1.06-3.66.49-5.49.55-.26,1-.09,1.19-.54s-.41-.78-.52-1.19c.66-.36.51-1,.52-1.56v-1.93l1.63-1.62c.34-.8-.19-1.61.38-2.12.93-.82-.59-1.87.36-2.63a10.46,10.46,0,0,1,0-7.51,2.61,2.61,0,0,0-.13-1.7,11.77,11.77,0,0,1-1-6l-1.19-.79a20.15,20.15,0,0,0-.2-3.2c-1.35-5.51-2-8.78-1.65-12.43a1.74,1.74,0,0,0,0-.88c-.86-1.45-1-3.16-1.42-4.74a31.12,31.12,0,0,0-2.06-4.49c-.25-.59-.71-.88-1-1.37-1.11-2.14-.63-4.74-2-6.83,1.18-2.09.11-4.39.63-6.55l1.08-1.08c0-1.93.06-3.9,0-5.87s1.42-3.38,1.89-5.21l-1.53-1.7c.94-.42.59-1.53,1.41-2,.15-2.89.14-5.7-1.61-8.23a1.85,1.85,0,0,1,.19-2.16,1.77,1.77,0,0,0,.2-1.92,3.58,3.58,0,0,1-.49-2.76c.13-1-.74-1.8-.59-2.71.27-1.69-.46-3.23-.77-4.77a11.31,11.31,0,0,0-.88-3.46,10.15,10.15,0,0,1-1.27-4.47c-.05-1.67-.59-3.41.43-5.13a2.48,2.48,0,0,0-.33-2.75c-.45-.52-.16-1.3-.13-2l1-1.05c.32-.78-.33-1.78.63-2.41.34-2.31,1.26-4.51,1.25-6.89a2.94,2.94,0,0,1,.38-1.92c.56-.82.16-1.75-.35-2.64s1.14-1.82.42-3c-.1-.16-.37-.26-.4-.42-.36-1.67-1-3.36-.93-5,.15-2.73.59-5.46.86-8.19.33-3.47-.64-7,.6-10.42a1.44,1.44,0,0,0,0-1.15c-1-1.07-.65-2.5-1.06-3.72s-.1-2.73-.1-4.11c.26-.89,1.25-1.4,1.19-2.47a12,12,0,0,0-.08-3c-.37-1.05,1.57-1.84.14-2.82,1.23-.85-.06-1.63-.11-2.44a25.83,25.83,0,0,1,1.38-9.51,5.41,5.41,0,0,0,.4-2.18,9.59,9.59,0,0,1,.82-4.42,5.3,5.3,0,0,0,0-3.82c-1.5-4.65-1.92-4-.37-9,.56-1.82,1.78-3.55,1.24-5.84l1.24-.59a3,3,0,0,1-.21-3.38,2.54,2.54,0,0,0,.17-2.23c-.75-1.36-.32-2.81-.59-4.15-1.73-.3-2.15-1.68-2.21-2.91a11.27,11.27,0,0,0-1-4.34,2.26,2.26,0,0,1-.21-1.09c0-1.48-.93-2.41-1.78-3.41,0-1.32.3-2.7-.84-4,1.09-.28.77-1.05.85-1.7s-.54-1.71-.35-2c.51-.78.26-1.51.33-2.25a18.74,18.74,0,0,0,0-2.37c-.1-1.83,1-3.52.63-5.37a2.57,2.57,0,0,0,.47-3c-.69-1.81-.4-3.61-.5-5.41a4.38,4.38,0,0,0-.12-1.14,16.34,16.34,0,0,1-1.05-6.07c.16-2.81-1-5.52-.59-8.34.06-.38-.37-.48-.41-.72-.26-1.69-1.24-3-2.09-4.91a25.93,25.93,0,0,1,1.78-4.26c.93-1.64-1.24-3.15,0-4.79-1-1.27.19-3-1-4.36-.23-.26-.07-1,.15-1.64a10.21,10.21,0,0,0,.11-5.92c-.27-1.19-.59-2.32-.9-3.48,1.27-1.21.08-2.43,0-3.65a10.25,10.25,0,0,0,1.18-6.19,3.41,3.41,0,0,0,.87-2.57,6.35,6.35,0,0,1,1.06-2.76c.6-1.07.18-2.09.52-3.06.67-.59.77-1.45,1.18-2.19l-.59-.67c.11-.35.65-.44.49-1.22-1.43-1.47-1.54-3.78-2.37-5.93l1.23-1c0-1.19-.39-2.48.1-3.06.63-.76.07-1.82.95-2.31a3,3,0,0,1-.47-2.07c0-.89,0-1.78,0-2.67,0-.37-.63-.41-.42-1,0-.1.6-.11.25-.49s-1.19.2-1.78-.65a36.54,36.54,0,0,0,2.37-9.3c-.9-.83-.24-2-.49-3.1l1.32-1c-.59-2.13.93-4,.47-5.92l1.13-.47c.14-.37.18-.72-.23-.94-.3.24-.49.65-1.09.53l-.57-.46c-.76-.59,0-1.69-.46-2.15a2.63,2.63,0,0,1-.47-2.47c.09-.79-.72-1.39-.31-2,.62-.89-.37-1.68-.11-2.22,1.07-2.3-.13-4.18-.9-6.39,1,0,.66-1,.92-1.51a21.11,21.11,0,0,0,.94-3.76c-1.26-1.57-.29-3.4-.59-5.08-.12-.59,1-.78.55-1.53-.35-.33-.7-.68-1.19-1.18.28-2.11-.48-4.41.48-6.62L9,6547.14a1.41,1.41,0,0,0,.68-1.87l-.09-.16c-.81-1.4-.38-2.83-.54-4.24-.2-1.69.52-3.47-.56-5.1a1.15,1.15,0,0,1,.11-1.09c.69-.55.51-1.27.43-1.9a6,6,0,0,1,1.23-4.14c-.15-.73-.59-1.22-.67-1.92-.16-1.08.69-2.06.16-3.11,1-.72,0-2,.85-2.82.49-.48.3-1.19.2-1.67-.15-.71-.78-1.29-.57-2.14.16-.64-.23-1.37.24-2s-.11-1.12.29-1.78a2,2,0,0,0-.45-2.3l1.11-1c-.21-.25-.59-.5-.55-.68.19-1.32-.42-2.66.38-4a2.54,2.54,0,0,0-.14-2.74,1.79,1.79,0,0,1-.16-1.62l1.12-.41c-.33-1.59.49-3.29-.54-4.78,1.32-1.59-.25-3.74,1-5.48.46-.64.08-1.9.08-2.72a4.53,4.53,0,0,1-1.19-2.65c0-.74.33-1.6-.53-2.14,1.12-.75.2-1.44,0-2.16a1.86,1.86,0,0,1,0-1.19c1.19-2.59,1-5.48,1.78-8.14a6.64,6.64,0,0,0,.46-3.49c-1.47-1.19-1.42-3-2.24-4.49-.46-.81.35-1.6.59-2.45-.73-.53-.7-1.47-1.27-2.14,1.39-1.67.31-3.08-.46-4.53a1.19,1.19,0,0,0,.43-1.62.91.91,0,0,0-.11-.16,2.41,2.41,0,0,1-.23-2.43,19.47,19.47,0,0,0,.05-6.77c-.32-2.64-1.77-5.27-.28-8,.48-.87-.2-1.83-.62-2.59.29-.5.76-.75.68-1.34s0-1.38,0-2.07.8-.82.63-1.54a1.66,1.66,0,0,1,.53-1.81c-.44-.41-.94-.86-.26-1.41s-.05-1.34.6-1.84c.45-.35-.69-1.12.27-1.45-1.05-.84-.49-2-.56-3s-.38-2.37.07-3.2c.59-1.12-.18-1.9-.19-2.82s.76-1.33.7-2.11a2,2,0,0,1-.38-2.62,3,3,0,0,0,.29-2.79c-.62-1.58-.17-3.34-1.15-4.63l.8-1a5.75,5.75,0,0,1-.82-1.69,19.88,19.88,0,0,1-.5-6.29,3.62,3.62,0,0,0-.63-2.09,10.76,10.76,0,0,0,.73-3.17,28.91,28.91,0,0,1,1.05-3.63l-.57-.59,1.78-1.78v-1.07c0-.36.66-.39.46-.84l-.45-.45a4.48,4.48,0,0,0,1.45-2.65c.37,0,.79.07.9-.47-.94-1.9-.59-3.91-.45-5.92,1-.56-.3-.85-.16-1.35s.76-1,.66-1.83a7.77,7.77,0,0,0-.59-1.54,4.73,4.73,0,0,1,0-2.05c.08-.67-.46-1-.59-1.55-.35-1.37-1-2.75-.59-4.17.3-1.19-.77-2-.6-3s1.19-1.67,1.19-2.77c0-.28-.07-.59.25-.79.71.13,1-.46,1.42-.83.35-.77-.28-1.74.59-2.45a1.39,1.39,0,0,0,.06-1.38c-1.13-1.47,0-3.41-1.11-4.89-.34-.45.11-1.07.52-1.49-1.18-2.51-1.24-3.29-1.18-6.14a11.74,11.74,0,0,0-.74-2.91c-.36-.14-.82,0-1-.59.39-.78.84-1.67,1.27-2.5-.18-.55-.83-.74-.59-1.4l.63-.7c-.87-.17-.7-.84-.65-1.41a14.88,14.88,0,0,1,1.14-3.37c.42-1.25-.51-2.7.51-3.94.2-.24-.06-.89.14-1.11,1.18-1.26.35-2.46-.13-3.68.9-.55,1.06-1.36.44-2-1.12-1.15.2-1.93.31-2.87.13-1.11-1.37-2-.48-2.93.75-.8.07-1.72.78-2.71l.83-.71c-.24-.37-.69-.54-.59-1.11,1.18-1.32,2.22-3.1,1.61-4.74a4.52,4.52,0,0,1,.11-3.41A10.61,10.61,0,0,0,18,6286a8.5,8.5,0,0,1,.43-3.64c.46-1.25.14-2.77,1.22-4a1.13,1.13,0,0,0-.31-1.56c-.32-.22-.16-.53-.19-.66l1.19-2.25a8.33,8.33,0,0,1-1.22-4.61,3.91,3.91,0,0,0-.42-2.37c.83-.71.24-1.67.42-2.49.48-2.14-.9-4.14-.45-6.86l1.34-.54c-1.45-.59-1.36-1.67-1.68-2.54-.54-1.51-.59-3.11-1-4.63,1-1.9.43-3.95.59-5.84l-1.77-1.77c0-1.67.29-3.44-1.19-4.74l1.19-1.18c-.18-1.89.42-3.93-.59-5.84.64-1.25.59-1.23.2-2.26-.24-.69-.86-1.21-.81-2,.1-1.65-.2-3.33.32-5-.29,0-.6.13-1-.49.76-1.24-.59-2.44-.53-3.87.31-.59,1.1-.84,1.23-1.77-1.07-1.07-1.16-2.37-.67-3.94.59-1.95-1.4-3.7-.65-5.73-.94-.78-.06-2-.56-2.71-.81-1.09.56-1.89.06-2.81.86-1,.51-2.18.59-3.19.9-1.19,1.72-2.31.92-3.48-.24-.55.45-.5,0-1l-.39-.38c.35-.33.8-.59.37-1.67l-1.05-.59h.66c-.28-3.17.59-5.84,3-7.74-.54-1.45-.54-1.45.05-2.68a4.63,4.63,0,0,1,0-4.84l-1-2a14,14,0,0,1,1.73-5.2c-.34-.43-.77-.59-.69-1.07l1.18-2.3c-1-1.77-.38-3.55-.62-5.09l1.36-1.25c-.6-1,.26-1.9.49-2.75l-.59-.74,1.1-1.1c-1.38-1.32,0-2.61.1-4.15-2-1.37-2.3-3.82-2.93-6-.49-1.67.17-3.63-.68-5.33a.65.65,0,0,1,0-.59c.86-.74.41-2,1.23-2.65l-.59-.95.49-.5-1.35-1.46,1.41-.81c-.52-.85-1.25-.91-1.57-1.3-1.52-2.11-.19-4.62-1.1-6.71-1.07-2.45.67-4.66.2-7.11-1.64-.49-.67-2.78-2.31-3.27v-1.9c-1.08-.7-1.24-2.15-2.36-2.91.17-1-.38-2,.53-3a1.73,1.73,0,0,0,0-1.68c-1-1-.43-2.33-1-3.46s-.11-2.5-.11-3.73c1-.91,1-2.23,1.5-3.29s.2-2.56.81-3.82c.5-1.05-.49-2.51.63-3.55-.23-.3-.66-.47-.5-1.31l.87-.52c.51-1.41-.09-2.49.72-3.49a2.37,2.37,0,0,0,.05-2.24c-.77-1-.47-2-.51-3.06-.06-1.38,0-2.77,0-4.15a4.54,4.54,0,0,1-1.19-3.65c.07-1.78,0-3.55,0-5.25l-1.11-1.1.7-1.13c-1.42-.23-.41-1.43-1-2.1-.33-.18-.8,0-.89-.2-.2-2.05-.59-3.76-1.66-4.84-.86-3,.75-5.42.36-8s.95-5.09,1.19-7.7H5.52v605.64c0,8.59,0,17.18,0,25.75a17.33,17.33,0,0,0,.11,3.29v502H17.4C15.64,7170.17,15.67,7167.22,14.45,7164.72Z" transform="translate(-5.46 0.01)"/><path class="cls-1" d="M14.45,8184.11c1.06-1,.21-2.33.53-3.44-.27-.37-.72-.53-.62-1.11,1.18-1.19.94-3,1.6-4.41,0-.25-.59-.26-.19-.74l.68-.59-1.6-.84c1.42-1.24-.09-3.06,1.19-4.14-.87-.59-.18-1.88-1.11-2.44.23-.3.59-.46.59-.95-.08-2.18-1.3-4-1.77-6,1.33-1.57-.23-3.73,1.37-5.33-1.82-1.09.08-3.2-1.39-4.44a4.78,4.78,0,0,0-.68-4.53c-1-1.51.31-3.35-1.19-4.51l.73-1c-.08-.74-1.13-1.36-.57-2.08a3.56,3.56,0,0,0,.53-2.75,3.46,3.46,0,0,1,.87-2.3c.64-.89,1.58-1.56.45-2.69,1-1.52-.6-3-.13-4.5a1.34,1.34,0,0,0-.34-1.33c-.54-.65-.2-1.45-.11-2.37l1.42-.93-1.28-.77c-.73-1.36.49-1.78.34-2.55-1-1.36-.72-2.68,0-4.07-.15-.19-.47-.4-.48-.63,0-2.62,0-5.26,0-8.29l1.18-.69c-.59-1.27-1.18-2.27-.31-3.4.59-.76-.28-1.95.82-2.63.94-.59.35-2.09,1.48-2.63.09-1.8,1.54-3.43.5-5.42a3.27,3.27,0,0,1,.06-3.31c.85-1.14-.14-1.78-.27-2.42L18,8080.6c-1-.93-.69-1.86,0-2.73a2.33,2.33,0,0,1-.35-2.93,2.4,2.4,0,0,0,.27-1.66,17.2,17.2,0,0,1,1.18-5.75l-.69-.74,1.31-1v-4.84l1-.4c.39-.94-.49-1-.41-1.61-.21-.56.72-.59.59-1.18a.94.94,0,0,0,.15-1.09c-1.4-2.81-1-5.66-.43-8.61a14.31,14.31,0,0,0,0-6.38c-1.35-5,.22-8.49.7-13.38,0-.4-.45-1.92-.45-2.31-.86-.16-.5-1.25-1.19-1.7.31-1.35-.49-2.88.6-4.14-.19-.31-.6-.46-.56-.95a8.27,8.27,0,0,0-.91-4.66,3.08,3.08,0,0,1-.2-2.52c1.06-2.18.51-4.24-.07-6.08,0-1.13,1.22-1.25,1.18-2.33.46-1-1-1.15-1.18-2a20.89,20.89,0,0,1,0-3c.14-1-.83-1.65-.67-2.72a4.46,4.46,0,0,0-1.26-4.37c.93-1.29-.17-2.37.08-3.56a3.49,3.49,0,0,0-1.07-3.34c-.55-2,1.06-3.66.49-5.49.55-.27,1-.09,1.19-.55s-.41-.77-.52-1.18c.66-.36.51-1,.52-1.56v-1.94c.66-.65,1.22-1.18,1.63-1.61.34-.8-.19-1.61.38-2.12.93-.82-.59-1.88.36-2.63a10.48,10.48,0,0,1,0-7.52,2.58,2.58,0,0,0-.13-1.69,11.77,11.77,0,0,1-1-6l-1.19-.8a19.9,19.9,0,0,0-.2-3.18c-1.35-5.52-2-8.79-1.65-12.44a1.74,1.74,0,0,0,0-.88c-.86-1.45-1-3.16-1.42-4.73a30.75,30.75,0,0,0-2.06-4.5c-.25-.59-.71-.88-1-1.37-1.11-2.15-.63-4.74-2-6.83,1.18-2.08.11-4.39.63-6.55l1.08-1.08c0-1.93.06-3.9,0-5.87s1.42-3.38,1.89-5.22l-1.53-1.69c.94-.42.59-1.54,1.41-2,.15-2.88.14-5.7-1.61-8.23a1.85,1.85,0,0,1,.19-2.16,1.73,1.73,0,0,0,.2-1.92,3.54,3.54,0,0,1-.49-2.76c.13-1-.74-1.81-.59-2.71.27-1.69-.46-3.23-.77-4.77a11.37,11.37,0,0,0-.88-3.47,10.11,10.11,0,0,1-1.27-4.46c-.05-1.67-.59-3.42.43-5.13a2.5,2.5,0,0,0-.33-2.76c-.45-.51-.16-1.29-.13-2l1-1.05c.32-.77-.33-1.77.63-2.4.34-2.31,1.26-4.51,1.25-6.89a2.94,2.94,0,0,1,.38-1.92c.56-.83.16-1.74-.35-2.64s1.14-1.82.42-2.93c-.1-.17-.37-.27-.4-.43-.36-1.67-1-3.37-.93-5,.15-2.74.59-5.46.86-8.2.33-3.46-.64-7,.6-10.42a1.51,1.51,0,0,0,0-1.15c-1-1.07-.65-2.49-1.06-3.71s-.1-2.73-.1-4.12c.26-.89,1.25-1.4,1.19-2.47a12,12,0,0,0-.08-3c-.37-1,1.57-1.85.14-2.82,1.23-.84-.06-1.63-.11-2.44a25.83,25.83,0,0,1,1.38-9.51,5.44,5.44,0,0,0,.4-2.18,9.4,9.4,0,0,1,.82-4.41,5.35,5.35,0,0,0,0-3.84c-1.5-4.64-1.92-4-.37-9,.56-1.83,1.78-3.56,1.24-5.85l1.24-.59a3,3,0,0,1-.21-3.38,2.56,2.56,0,0,0,.17-2.24c-.75-1.35-.32-2.81-.59-4.14-1.73-.31-2.15-1.69-2.21-2.92a11.23,11.23,0,0,0-1-4.34,2.26,2.26,0,0,1-.21-1.09c0-1.48-.93-2.41-1.78-3.41,0-1.32.3-2.7-.84-4,1.09-.28.77-1.05.85-1.71s-.54-1.7-.35-2c.51-.78.26-1.52.33-2.25a18.74,18.74,0,0,0,0-2.37c-.1-1.83,1-3.52.63-5.37a2.57,2.57,0,0,0,.47-3c-.69-1.81-.4-3.61-.5-5.41a4.33,4.33,0,0,0-.12-1.14,16.31,16.31,0,0,1-1.05-6.07c.16-2.81-1-5.51-.59-8.34.06-.38-.37-.47-.41-.72-.26-1.69-1.24-3.05-2.09-4.9a25.24,25.24,0,0,1,1.78-4.27c.93-1.64-1.24-3.16,0-4.79-1-1.27.19-3-1-4.36-.22-.26-.06-1.05.16-1.64a10.24,10.24,0,0,0,.11-5.93c-.27-1.18-.59-2.31-.91-3.47,1.28-1.22.09-2.44,0-3.65a10.15,10.15,0,0,0,1.19-6.18,3.45,3.45,0,0,0,.87-2.57,6.39,6.39,0,0,1,1.06-2.77c.6-1.07.17-2.08.52-3.05.67-.6.77-1.46,1.18-2.19l-.59-.69c.11-.33.65-.43.49-1.22-1.43-1.46-1.54-3.76-2.37-5.92l1.23-1c0-1.19-.38-2.49.11-3.07.62-.75.07-1.81.94-2.31a3,3,0,0,1-.46-2.07c0-.89,0-1.77,0-2.66,0-.37-.64-.42-.41-1,0-.1.59-.12.24-.5-.5-.35-1.18.21-1.78-.65a36,36,0,0,0,2.37-9.29c-.9-.83-.24-2-.49-3.1l1.32-1c-.59-2.12.93-3.95.47-5.92l1.14-.47c.13-.37.17-.71-.24-.93-.3.23-.49.64-1.09.52-.13-.11-.34-.29-.56-.46-.77-.6,0-1.69-.47-2.15a2.62,2.62,0,0,1-.47-2.47c.09-.8-.72-1.39-.31-2,.62-.88-.36-1.68-.11-2.23,1.07-2.29-.13-4.17-.89-6.38,1,0,.65-.95.91-1.52a20.79,20.79,0,0,0,.94-3.75c-1.26-1.56-.28-3.4-.59-5.08-.11-.59,1-.78.55-1.53l-1.19-1.18c.28-2.12-.48-4.42.48-6.63L9,7566.53a1.41,1.41,0,0,0,.68-1.87l-.09-.16c-.81-1.4-.38-2.83-.54-4.23-.19-1.7.52-3.48-.55-5.11a1.12,1.12,0,0,1,.1-1.09c.69-.55.51-1.27.43-1.9a6,6,0,0,1,1.24-4.14c-.16-.73-.6-1.22-.68-1.92-.16-1.08.69-2.06.16-3.11,1-.72,0-2,.85-2.82.49-.48.3-1.16.19-1.67-.14-.71-.77-1.29-.56-2.14.17-.64-.24-1.37.24-2s-.1-1.12.29-1.78a2,2,0,0,0-.45-2.3l1.12-1c-.22-.25-.6-.49-.56-.68.19-1.32-.41-2.66.38-4a2.54,2.54,0,0,0-.14-2.74,1.77,1.77,0,0,1-.16-1.61l1.12-.41c-.33-1.6.49-3.3-.54-4.78,1.32-1.6-.25-3.75,1-5.48.46-.65.08-1.91.08-2.73a4.53,4.53,0,0,1-1.19-2.65c0-.74.33-1.6-.52-2.14,1.11-.75.19-1.43,0-2.16a1.74,1.74,0,0,1,0-1.19c1.18-2.59,1-5.48,1.77-8.14a6.64,6.64,0,0,0,.46-3.49c-1.46-1.19-1.42-3.05-2.25-4.49-.45-.81.37-1.6.6-2.45-.73-.52-.71-1.47-1.28-2.14,1.4-1.67.31-3.08-.46-4.53a1.18,1.18,0,0,0,.44-1.61l-.11-.16a2.38,2.38,0,0,1-.23-2.44,19.72,19.72,0,0,0,.05-6.77c-.33-2.64-1.78-5.26-.28-8,.47-.87-.2-1.82-.62-2.59.29-.5.75-.75.68-1.34s0-1.38,0-2.07.8-.82.62-1.53a1.66,1.66,0,0,1,.54-1.81c-.44-.42-.94-.87-.26-1.42s-.06-1.34.59-1.84c.46-.35-.68-1.12.28-1.45-1-.84-.48-2-.56-3s-.38-2.37.07-3.21c.59-1.12-.18-1.9-.19-2.82s.76-1.33.7-2.1a2,2,0,0,1-.37-2.63,3,3,0,0,0,.28-2.79c-.62-1.58-.17-3.34-1.15-4.63l.8-1a5.76,5.76,0,0,1-.82-1.69,19.5,19.5,0,0,1-.49-6.28,3.74,3.74,0,0,0-.64-2.1,10.77,10.77,0,0,0,.73-3.16,27,27,0,0,1,1.05-3.64l-.56-.59,1.77-1.78V7398c0-.38.67-.4.46-.84l-.45-.45a4.55,4.55,0,0,0,1.46-2.65c.36,0,.79.07.9-.47-.95-1.9-.59-3.91-.45-5.92,1-.55-.31-.85-.16-1.35s.76-1,.66-1.83a7.77,7.77,0,0,0-.59-1.54,4.72,4.72,0,0,1,0-2c.08-.67-.46-1-.59-1.54-.35-1.37-1-2.76-.6-4.18.3-1.19-.77-2-.59-3s1.19-1.67,1.19-2.77c0-.28-.07-.59.24-.78.71.12,1-.47,1.43-.84.34-.77-.28-1.73.59-2.45a1.41,1.41,0,0,0,.06-1.38c-1.14-1.47,0-3.41-1.11-4.89-.34-.45.11-1.06.52-1.48-1.18-2.52-1.24-3.3-1.18-6.15a11.86,11.86,0,0,0-.74-2.91c-.37-.14-.82,0-1.05-.59.4-.78.85-1.68,1.27-2.51-.17-.54-.82-.73-.59-1.39l.63-.7c-.87-.17-.7-.84-.65-1.41a14.72,14.72,0,0,1,1.14-3.37c.42-1.24-.51-2.71.51-3.95.2-.24-.06-.88.14-1.1,1.18-1.26.35-2.46-.13-3.68.9-.55,1.06-1.36.44-2-1.12-1.15.2-1.94.32-2.88.13-1.1-1.38-2-.48-2.93.74-.79.06-1.72.77-2.7l.83-.72c-.24-.36-.69-.53-.59-1.1,1.18-1.32,2.23-3.1,1.62-4.74a4.52,4.52,0,0,1,.11-3.41,10.58,10.58,0,0,0,.66-3.89,8.84,8.84,0,0,1,.43-3.65c.47-1.25.15-2.78,1.23-4a1.14,1.14,0,0,0-.31-1.56c-.32-.22-.17-.53-.19-.67l1.19-2.25a8.28,8.28,0,0,1-1.22-4.6,4,4,0,0,0-.42-2.37c.83-.72.23-1.67.42-2.49.48-2.15-.9-4.15-.45-6.86l1.34-.54c-1.46-.59-1.36-1.67-1.68-2.55-.54-1.5-.59-3.09-1-4.62,1-1.9.43-4,.59-5.83l-1.77-1.78c0-1.67.29-3.43-1.19-4.74l1.19-1.18c-.19-1.89.42-3.93-.6-5.83.64-1.26.6-1.24.21-2.26-.24-.7-.86-1.19-.81-2,.1-1.65-.2-3.33.31-4.95-.29-.05-.59.12-1-.49.76-1.25-.59-2.45-.53-3.87.31-.59,1.1-.85,1.23-1.78-1.07-1.07-1.16-2.36-.67-3.94.59-1.94-1.4-3.69-.65-5.72-.94-.78-.06-2-.56-2.71-.82-1.1.56-1.89.06-2.81.86-1,.51-2.18.59-3.2.9-1.18,1.71-2.31.92-3.48-.24-.55.44-.5,0-.94l-.39-.39c.35-.33.8-.62.37-1.67l-1-.59h.66c-.28-3.17.59-5.83,2.93-7.73-.53-1.45-.53-1.45.05-2.69a4.68,4.68,0,0,1,0-4.84l-1-2a14,14,0,0,1,1.73-5.19c-.34-.44-.77-.59-.69-1.08l1.19-2.29c-1-1.78-.39-3.55-.62-5.1l1.35-1.24c-.59-1,.26-1.91.49-2.76l-.59-.73,1.11-1.11c-1.39-1.31,0-2.61.09-4.14-2-1.38-2.29-3.83-2.93-6-.49-1.67.17-3.62-.67-5.33a.59.59,0,0,1,0-.55c.86-.75.41-2,1.23-2.66-.27-.42-.45-.7-.59-1l.49-.49-1.35-1.46,1.41-.81c-.52-.85-1.25-.91-1.57-1.31-1.52-2.09-.19-4.61-1.1-6.71-1.08-2.45.67-4.65.2-7.1-1.64-.49-.68-2.79-2.31-3.28v-1.9c-1.08-.7-1.25-2.14-2.37-2.9.18-1-.37-2,.53-3a1.68,1.68,0,0,0,0-1.68c-1-1-.42-2.33-1-3.46s-.11-2.5-.11-3.73c1-.9,1-2.22,1.5-3.29s.2-2.56.81-3.81c.51-1.06-.49-2.52.63-3.56-.23-.29-.66-.47-.5-1.31l.87-.51c.51-1.42-.08-2.49.73-3.49a2.39,2.39,0,0,0,0-2.25c-.77-1-.46-2-.51-3.06-.06-1.38,0-2.76,0-4.15a4.5,4.5,0,0,1-1.18-3.65c.06-1.78,0-3.55,0-5.24l-1.11-1.11.7-1.12c-1.42-.23-.41-1.44-1-2.11-.33-.17-.8,0-.89-.2-.2-2.05-.59-3.75-1.66-4.84-.86-2.93.75-5.41.36-8s.95-5.1,1.19-7.7H5.51V7661c0,8.59,0,17.17,0,25.75a17.16,17.16,0,0,0,.11,3.28v502H17.39C15.64,8189.57,15.67,8186.62,14.45,8184.11Z" transform="translate(-5.46 0.01)"/></svg>